/* XPM */
static const char * node_white_xpm[] = {
"16 16 57 1",
" 	c None",
".	c #D8D8D8",
"+	c #D5D5D5",
"@	c #D6D6D6",
"#	c #CFCFCF",
"$	c #E0E0E0",
"%	c #E1E1E1",
"&	c #DADADA",
"*	c #D1D1D1",
"=	c #D2D2D2",
"-	c #CDCDCD",
";	c #DFDFDF",
">	c #E3E3E3",
",	c #DCDCDC",
"'	c #DDDDDD",
")	c #D0D0D0",
"!	c #CCCCCC",
"~	c #C3C3C3",
"{	c #DEDEDE",
"]	c #E5E5E5",
"^	c #E8E8E8",
"/	c #D7D7D7",
"(	c #D4D4D4",
"_	c #CECECE",
":	c #CBCBCB",
"<	c #F2F2F2",
"[	c #FBFBFB",
"}	c #F5F5F5",
"|	c #D3D3D3",
"1	c #C8C8C8",
"2	c #C7C7C7",
"3	c #C5C5C5",
"4	c #C1C1C1",
"5	c #ECECEC",
"6	c #FDFDFD",
"7	c #FEFEFE",
"8	c #EAEAEA",
"9	c #CACACA",
"0	c #C6C6C6",
"a	c #DBDBDB",
"b	c #F1F1F1",
"c	c #F8F8F8",
"d	c #C4C4C4",
"e	c #B5B5B5",
"f	c #C9C9C9",
"g	c #BDBDBD",
"h	c #C2C2C2",
"i	c #B9B9B9",
"j	c #BFBFBF",
"k	c #ADADAD",
"l	c #BBBBBB",
"m	c #C0C0C0",
"n	c #BEBEBE",
"o	c #B3B3B3",
"p	c #B0B0B0",
"q	c #B6B6B6",
"r	c #B2B2B2",
"      .+@#      ",
"    $%%&.*=-    ",
"  *;>,'&.)**!~  ",
"  {%]^$//(_:!:  ",
" =.{<[}'=|-1234 ",
" +.;5678())9022 ",
"2|//abc;=:#132de",
")#=(|+.!-f1f4ddg",
"2(*=)#_912033h~i",
"j=(_:!_2d29303jk",
" -*9-:f010d34hl ",
" 0)!!::d3dhm4~e ",
"  2_-:!23jmjgl  ",
"   324d33nmml   ",
"    lmnj~hlo    ",
"      pqqr      "};
