/* XPM */
static const char * node_black_xpm[] = {
"16 16 59 1",
" 	c None",
".	c #151515",
"+	c #0E0E0E",
"@	c #080808",
"#	c #030303",
"$	c #262626",
"%	c #212121",
"&	c #181818",
"*	c #060606",
"=	c #010101",
"-	c #000000",
";	c #252525",
">	c #2E2E2E",
",	c #383838",
"'	c #3B3B3B",
")	c #363636",
"!	c #282828",
"~	c #0A0A0A",
"{	c #020202",
"]	c #2A2A2A",
"^	c #3C3C3C",
"/	c #4D4D4D",
"(	c #575757",
"_	c #545454",
":	c #404040",
"<	c #101010",
"[	c #040404",
"}	c #1C1C1C",
"|	c #2D2D2D",
"1	c #454545",
"2	c #616161",
"3	c #767676",
"4	c #787878",
"5	c #5F5F5F",
"6	c #373737",
"7	c #161616",
"8	c #050505",
"9	c #191919",
"0	c #2B2B2B",
"a	c #474747",
"b	c #6A6A6A",
"c	c #8D8D8D",
"d	c #999999",
"e	c #7D7D7D",
"f	c #1A1A1A",
"g	c #131313",
"h	c #222222",
"i	c #606060",
"j	c #888888",
"k	c #9D9D9D",
"l	c #838383",
"m	c #0B0B0B",
"n	c #424242",
"o	c #737373",
"p	c #313131",
"q	c #202020",
"r	c #2F2F2F",
"s	c #353535",
"t	c #090909",
"      .+@#      ",
"    $$%&+*=-    ",
"  ;>,')!&~{---  ",
"  ]^/(_:$<[---  ",
" }|12345678---- ",
" 90abcdeaf8---- ",
"~gh^ijkla&[-----",
"8m7!n2o5p+=-----",
"{8~gqrs]g[------",
"-=#*~++t#-------",
" ---===-------- ",
" -------------- ",
"  ------------  ",
"  ------------  ",
"    --------    ",
"      ----      "};
