/* XPM */
static const char *leftcomment_xpm[]={
"16 16 3 1",
". c None",
"# c #000000",
"a c #000080",
"................",
".............#..",
"............##..",
"...........###..",
"..........####..",
".........#####..",
"........######..",
".aaa.....#####..",
"..........####..",
".aaaaaaaa..###..",
"............##..",
".aaaaaa......#..",
"................",
".aaaaaaaa.......",
"................",
"................"};
