/* XPM */
static const char *rightcomment_xpm[]={
"16 16 4 1",
". c None",
"# c #000000",
"a c #000040",
"b c #000080",
"................",
".#..............",
".##.............",
".###............",
".####...........",
".#####..........",
".#####a.........",
".####a..........",
".####......bbbb.",
".###............",
".##....bbbbbbbb.",
".#..............",
"..........bbbbb.",
"................",
".......bbbbbbbb.",
"................"};
