/* XPM */
static const char *alt_ghost_white_xpm[]={
"16 16 16 1",
". c None",
"n c #c4c4c4",
"m c #c6c6c6",
"l c #c7c7c7",
"i c #c8c8c8",
"h c #c9c9c9",
"e c #cbcbcb",
"k c #cecece",
"j c #cfcfcf",
"d c #d2d2d2",
"a c #d4d4d4",
"f c #d5d5d5",
"g c #d8d8d8",
"c c #dfdfdf",
"# c #eaeaea",
"b c #f8f8f8",
"................",
"................",
"................",
"................",
"................",
".......#a.......",
"......bcde......",
".....fggghi.....",
".....jkiilm.....",
"......klnl......",
".......mi.......",
"................",
"................",
"................",
"................",
"................"};

