/* XPM */
static const char *alt_ghost_black_xpm[]={
"16 16 16 1",
". c None",
"m c #000000",
"k c #010101",
"g c #040404",
"n c #0e0e0e",
"f c #181818",
"j c #2f2f2f",
"l c #353535",
"b c #474747",
"c c #5f5f5f",
"h c #616161",
"i c #737373",
"a c #7d7d7d",
"e c #838383",
"d c #9d9d9d",
"# c #c3c3c3",
"................",
"................",
"................",
"................",
"................",
"......#abc......",
".....#debfg.....",
".....hiijjk.....",
".....jljjkm.....",
".....cnkkmc.....",
"......cmmc......",
"................",
"................",
"................",
"................",
"................"};

