/* XPM */
static const char * Bowl_xpm[] = {
"32 32 432 2",
"  	c None",
". 	c #D6BAAE",
"+ 	c #AD8472",
"@ 	c #CCAF9F",
"# 	c #AF634C",
"$ 	c #B86A46",
"% 	c #C18165",
"& 	c #BA7B58",
"* 	c #B06C47",
"= 	c #A86A45",
"- 	c #AD6743",
"; 	c #AA6850",
"> 	c #B17761",
", 	c #9E6144",
"' 	c #A55B42",
") 	c #BE7F5E",
"! 	c #B37451",
"~ 	c #AF6D4B",
"{ 	c #A66643",
"] 	c #965633",
"^ 	c #8D4C30",
"/ 	c #975137",
"( 	c #9D5A3F",
"_ 	c #9B5436",
": 	c #A05E3E",
"< 	c #A06044",
"[ 	c #9D695C",
"} 	c #A26747",
"| 	c #AE684F",
"1 	c #AB6E4F",
"2 	c #A76545",
"3 	c #995138",
"4 	c #8A4B39",
"5 	c #F3E4DF",
"6 	c #F1FAF7",
"7 	c #8D625B",
"8 	c #F1D4CC",
"9 	c #E2D7DB",
"0 	c #73423B",
"a 	c #8E4F3D",
"b 	c #8D4F3A",
"c 	c #844438",
"d 	c #A85630",
"e 	c #88452B",
"f 	c #AD6D51",
"g 	c #A25D3C",
"h 	c #A2573A",
"i 	c #8E534D",
"j 	c #F5F9F8",
"k 	c #FFFFFF",
"l 	c #FFFFFD",
"m 	c #FFFEFA",
"n 	c #FCFCFC",
"o 	c #FEFFFF",
"p 	c #D4CAC8",
"q 	c #DACFCD",
"r 	c #E9D5CC",
"s 	c #C1A39B",
"t 	c #AD583B",
"u 	c #A76B4F",
"v 	c #6A4D3F",
"w 	c #8D4131",
"x 	c #985037",
"y 	c #7F4D42",
"z 	c #F3E0D9",
"A 	c #FFFAFC",
"B 	c #FFFEFF",
"C 	c #FDFDFD",
"D 	c #FAFCFB",
"E 	c #FDFDFB",
"F 	c #DAD3C9",
"G 	c #A16451",
"H 	c #AE573C",
"I 	c #B15C3F",
"J 	c #874E3D",
"K 	c #804237",
"L 	c #963B28",
"M 	c #FFF6F1",
"N 	c #FCFCFA",
"O 	c #FEFFF9",
"P 	c #FFFEF9",
"Q 	c #A25042",
"R 	c #B25D49",
"S 	c #AB4D33",
"T 	c #9A4328",
"U 	c #BB7263",
"V 	c #7B473A",
"W 	c #884437",
"X 	c #944234",
"Y 	c #823427",
"Z 	c #7E382C",
"` 	c #96746B",
" .	c #FEF2F2",
"..	c #FEFFFD",
"+.	c #F7FFFE",
"@.	c #FCFFFF",
"#.	c #FFFDFF",
"$.	c #FFF8F6",
"%.	c #A69294",
"&.	c #C8979D",
"*.	c #BE8D89",
"=.	c #C5908C",
"-.	c #A14E40",
";.	c #9D3E2A",
">.	c #94361A",
",.	c #764034",
"'.	c #7E4430",
").	c #864330",
"!.	c #6C2D1E",
"~.	c #732823",
"{.	c #873426",
"].	c #A5503B",
"^.	c #943F2A",
"/.	c #883726",
"(.	c #893A2B",
"_.	c #93493C",
":.	c #AC6865",
"<.	c #BB928E",
"[.	c #D6B5B0",
"}.	c #E0C0C1",
"|.	c #C28982",
"1.	c #9E4533",
"2.	c #A03C22",
"3.	c #993B1F",
"4.	c #953622",
"5.	c #995041",
"6.	c #86452F",
"7.	c #743526",
"8.	c #702C1F",
"9.	c #7A3122",
"0.	c #974933",
"a.	c #9A4735",
"b.	c #8F423A",
"c.	c #A97579",
"d.	c #AD8384",
"e.	c #995C5B",
"f.	c #AD5D52",
"g.	c #B26C60",
"h.	c #994636",
"i.	c #9F432E",
"j.	c #9C3C26",
"k.	c #A64A31",
"l.	c #913118",
"m.	c #882D1B",
"n.	c #875443",
"o.	c #723522",
"p.	c #753323",
"q.	c #83391E",
"r.	c #883B21",
"s.	c #7F341D",
"t.	c #6D2B1F",
"u.	c #8B4334",
"v.	c #7E3E3E",
"w.	c #994332",
"x.	c #B35C40",
"y.	c #923F37",
"z.	c #973B26",
"A.	c #93371E",
"B.	c #9E4229",
"C.	c #8D3521",
"D.	c #943424",
"E.	c #7F3124",
"F.	c #84766D",
"G.	c #7C3929",
"H.	c #77371C",
"I.	c #7E3D21",
"J.	c #803A20",
"K.	c #682216",
"L.	c #7A3224",
"M.	c #6B251B",
"N.	c #8D3C27",
"O.	c #AE5034",
"P.	c #852F1E",
"Q.	c #893123",
"R.	c #8D351F",
"S.	c #933A2A",
"T.	c #933C2B",
"U.	c #852E1A",
"V.	c #7B2A19",
"W.	c #823A2C",
"X.	c #939393",
"Y.	c #7E462D",
"Z.	c #703724",
"`.	c #814126",
" +	c #7E3723",
".+	c #6E2919",
"++	c #60241A",
"@+	c #7D331A",
"#+	c #9E4D32",
"$+	c #893825",
"%+	c #79251B",
"&+	c #8D3126",
"*+	c #802D1F",
"=+	c #7B291B",
"-+	c #812D22",
";+	c #863726",
">+	c #833B23",
",+	c #6F675C",
"'+	c #74706F",
")+	c #773E2B",
"!+	c #884A31",
"~+	c #813A26",
"{+	c #75321F",
"]+	c #783725",
"^+	c #864027",
"/+	c #893C2A",
"(+	c #712D24",
"_+	c #7A2B1E",
":+	c #792B1F",
"<+	c #732318",
"[+	c #7D291F",
"}+	c #752315",
"|+	c #6E261A",
"1+	c #7F3C2B",
"2+	c #845A4C",
"3+	c #635A5B",
"4+	c #793D23",
"5+	c #824227",
"6+	c #844029",
"7+	c #753420",
"8+	c #87402A",
"9+	c #793425",
"0+	c #6C261C",
"a+	c #631D13",
"b+	c #6C2217",
"c+	c #601C11",
"d+	c #622419",
"e+	c #7A4124",
"f+	c #52453F",
"g+	c #88898B",
"h+	c #646368",
"i+	c #4D3D30",
"j+	c #6E3021",
"k+	c #843C24",
"l+	c #7C3D2C",
"m+	c #743629",
"n+	c #6E3023",
"o+	c #6B3227",
"p+	c #6A3527",
"q+	c #503933",
"r+	c #5A4F3D",
"s+	c #8C5E47",
"t+	c #C2796A",
"u+	c #E08E76",
"v+	c #D38267",
"w+	c #B87356",
"x+	c #AA5338",
"y+	c #6A696E",
"z+	c #4B5054",
"A+	c #4C4441",
"B+	c #493C36",
"C+	c #433B38",
"D+	c #4A3C3C",
"E+	c #464543",
"F+	c #4B5053",
"G+	c #934F46",
"H+	c #AD684B",
"I+	c #B65431",
"J+	c #C17458",
"K+	c #CD876D",
"L+	c #C57A67",
"M+	c #C7775E",
"N+	c #CE8165",
"O+	c #AE5A42",
"P+	c #872E1C",
"Q+	c #A9533A",
"R+	c #AA4529",
"S+	c #B47266",
"T+	c #E9C2B1",
"U+	c #D39580",
"V+	c #CA7B5A",
"W+	c #C87251",
"X+	c #C56B49",
"Y+	c #BA5E39",
"Z+	c #B7593D",
"`+	c #964031",
" @	c #853C2B",
".@	c #662014",
"+@	c #984028",
"@@	c #A7513A",
"#@	c #A4412A",
"$@	c #CC8768",
"%@	c #B66B56",
"&@	c #C16945",
"*@	c #D0744B",
"=@	c #C8663F",
"-@	c #BA5332",
";@	c #B54D32",
">@	c #AF4930",
",@	c #9D412A",
"'@	c #994231",
")@	c #9A3F2C",
"!@	c #833221",
"~@	c #62261E",
"{@	c #A94633",
"]@	c #A14F37",
"^@	c #B75236",
"/@	c #B95B41",
"(@	c #C16742",
"_@	c #C1633D",
":@	c #AC5037",
"<@	c #BA5539",
"[@	c #C26136",
"}@	c #B4522F",
"|@	c #A14933",
"1@	c #AD4D34",
"2@	c #A5452C",
"3@	c #9C422A",
"4@	c #6F2921",
"5@	c #7E3427",
"6@	c #8C3E28",
"7@	c #924332",
"8@	c #A1402D",
"9@	c #C66D41",
"0@	c #C35E40",
"a@	c #BB5936",
"b@	c #BE6337",
"c@	c #A84D30",
"d@	c #B65737",
"e@	c #A74731",
"f@	c #9E4328",
"g@	c #9A4028",
"h@	c #813223",
"i@	c #5B1C0B",
"j@	c #974132",
"k@	c #8C412C",
"l@	c #9F402A",
"m@	c #B95C3A",
"n@	c #BE5D3A",
"o@	c #B95636",
"p@	c #BB5D37",
"q@	c #B15732",
"r@	c #AE5537",
"s@	c #933A28",
"t@	c #933E29",
"u@	c #953B23",
"v@	c #9C3D27",
"w@	c #8D3728",
"x@	c #682314",
"y@	c #8B3A27",
"z@	c #A14A36",
"A@	c #9C4A34",
"B@	c #AC4E35",
"C@	c #B45333",
"D@	c #C15F38",
"E@	c #C56439",
"F@	c #AC5238",
"G@	c #9B432D",
"H@	c #913B22",
"I@	c #A24428",
"J@	c #A44227",
"K@	c #9E3F29",
"L@	c #A3452B",
"M@	c #802C21",
"N@	c #9C462D",
"O@	c #9A4330",
"P@	c #9E4935",
"Q@	c #6B2A16",
"R@	c #A14A37",
"S@	c #B04C35",
"T@	c #B25333",
"U@	c #B75635",
"V@	c #A3492E",
"W@	c #9F432C",
"X@	c #A14633",
"Y@	c #9C4227",
"Z@	c #A64727",
"`@	c #9B4025",
" #	c #9E442C",
".#	c #8A382A",
"+#	c #984233",
"@#	c #81594D",
"##	c #6A6965",
"$#	c #A54B31",
"%#	c #71291D",
"&#	c #8E3B29",
"*#	c #A94B32",
"=#	c #B05334",
"-#	c #B95837",
";#	c #B04D2E",
">#	c #9C442E",
",#	c #993F25",
"'#	c #A14634",
")#	c #A4492E",
"!#	c #842C20",
"~#	c #9E5141",
"{#	c #AA5045",
"]#	c #914D40",
"^#	c #615755",
"/#	c #924A31",
"(#	c #9C4F33",
"_#	c #6B2114",
":#	c #7D3124",
"<#	c #A84935",
"[#	c #964029",
"}#	c #9C3F2D",
"|#	c #953C2C",
"1#	c #92453B",
"2#	c #8B3E2E",
"3#	c #85382E",
"4#	c #B5553D",
"5#	c #A06955",
"6#	c #757A7D",
"7#	c #66636A",
"8#	c #563E32",
"9#	c #954429",
"0#	c #A84830",
"a#	c #A0543D",
"b#	c #7B3325",
"c#	c #602217",
"d#	c #5E251C",
"e#	c #8C4239",
"f#	c #9A4E40",
"g#	c #953F2E",
"h#	c #C38475",
"i#	c #55463F",
"j#	c #767A7B",
"k#	c #8B9191",
"l#	c #616767",
"m#	c #474948",
"n#	c #4D3A36",
"o#	c #713E2D",
"p#	c #6F4036",
"q#	c #4F3528",
"r#	c #484540",
"s#	c #525254",
"t#	c #757470",
"u#	c #8C8C8C",
"v#	c #7A7A7A",
"w#	c #737373",
"x#	c #767676",
"y#	c #818181",
"                                                                ",
"                      . + @                                     ",
"              # $ % & * = - ; > ,                               ",
"          ' ) ! ~ { ] ^ / ( _ : < [ }                           ",
"        | 1 2 3 4 5 5 6 7 8 9 0 a b c d                         ",
"      e f g h i j k l m n k o p q r s t u                       ",
"    v w x y z A p k p B C k p D E F G H I                       ",
"    J K L M o l N p l O p k l l P Q R S T U                     ",
"    V W X Y Z `  ...+.@.#.$.%.&.*.=.-.;.>.,.                    ",
"    '.).!.~.{.].^./.(._.:.<.[.}.|.1.2.3.4.5.                    ",
"    6.7.8.9.0.a.b.c.d.e.f.U g.h.i.j.k.l.m.,.                    ",
"    n.o.p.q.r.s.t.u.v.w.x.5.y.z.A.B.C.D.E.a.                    ",
"    F.G.H.I.J.K.L.M.N.O.P.Q.R.R.S.T.U.V.W.X.                    ",
"      Y.Z.`. +.+++@+#+$+%+R.&+*+=+-+;+>+,+                      ",
"      '+)+!+~+{+]+^+/+(+_+:+<+[+}+|+1+2+X.                      ",
"        3+4+5+6+7+8+p.9+0+a+b+c+d+e+f+g+                        ",
"          h+i+++j+k+l+1+m+n+o+p+q+r+s+t+u+v+w+x+                ",
"              y+z+A+B+C+D+E+F+G+H+I+J+K+L+M+N+O+P+x+            ",
"                            Q+R+S+T+U+V+W+X+Y+Z+`+ @.@+@        ",
"                          @@#@$@%@&@*@=@-@;@>@,@'@)@!@~@{@      ",
"                        ]@^@/@(@_@:@<@[@}@p 5 |@1@2@3@4@5@6@    ",
"                        7@8@9@0@a@b@c@d@e@5 m p m f@g@h@i@j@    ",
"                        k@l@m@n@o@p@q@r@Y+s@t@%.m u@v@w@x@y@    ",
"                        z@A@B@C@D@E@p 5 F@G@H@I@J@K@L@M@N@O@    ",
"                        P@Q@R@S@T@U@5 l V@W@X@Y@Z@`@ #.#+#@#    ",
"                        ##$#%#&#*#=#-#;#>#W@,#'#)#!#~#{#]#X.    ",
"                          ^#/#(#_#:#z@<#[#}#|#1#2#3#4#5#6#      ",
"                            7#8#9#0#a#b#c#d#e#f#g#h#i#j#        ",
"                              k#l#m#n#o#,.p#q#r#s#t#s#          ",
"                                    u#v#w#x#y#s#s#X.            ",
"                                                                ",
"                                                                "};
