/* XPM */
static const char *computerplay[]={
"16 16 100 2",
".# c #000000",
".e c #414184",
".B c #50508b",
".w c #555591",
".P c #555596",
".a c #595995",
"## c #5b5b99",
".f c #63639a",
"#G c #6666a5",
".A c #6868a4",
".Y c #6a6aa3",
".1 c #7070a9",
".5 c #7171aa",
"#a c #7171ac",
".g c #7272a6",
".Q c #7272a7",
".J c #7878b1",
"#h c #7c7cb1",
".c c #7e7eb3",
"#i c #8181b6",
"#p c #8383b2",
".S c #8383b8",
".i c #8787b9",
".z c #8989bb",
"#. c #8a8abb",
".C c #8b8bb6",
".4 c #8b8bbb",
".j c #8c8cbc",
".6 c #8e8ebc",
".Z c #9191be",
".s c #9595c2",
".n c #9797c7",
"#b c #9898c5",
"#A c #9898c7",
".d c #9898c8",
".b c #9999c4",
".t c #9a9ac6",
"#j c #9f9fc9",
"#c c #a0a0ca",
"#q c #a1a1cf",
".u c #a6a6cd",
".H c #a8a8cc",
".O c #a8a8d3",
".r c #a9a9cf",
".v c #aaaad2",
".X c #ababd1",
"#F c #ababd3",
".l c #acacd7",
".E c #adadd1",
".K c #adadd7",
".D c #aeaed2",
"#B c #aeaed9",
".k c #afafd2",
"#z c #b1b1d4",
".h c #b2b2d4",
".T c #b2b2dc",
".3 c #b4b4d6",
"#s c #b5b5d6",
".0 c #b5b5d7",
".m c #b5b5d8",
"#r c #b7b7d8",
".x c #b8b8d5",
".I c #bbbbda",
"#k c #bbbbe1",
"#t c #bcbcda",
".L c #bcbcdb",
".F c #bdbddb",
".y c #bebedb",
".q c #c0c0dc",
".W c #c3c3de",
".p c #c4c4df",
".M c #c5c5df",
"Qt c #c69125",
".R c #c6c6e0",
"#u c #c8c8e5",
".2 c #cacae5",
".U c #cccce4",
".9 c #cdcde4",
"#C c #cfcfe8",
".V c #d1d1e7",
"#l c #d1d1e9",
".o c #d2d2e7",
".7 c #d2d2ec",
"#e c #d3d3e7",
"#d c #d3d3ed",
"#D c #d4d4e8",
"#v c #d5d5e9",
"#w c #d7d7ea",
".G c #d7d7f0",
"#E c #d8d8ea",
".8 c #dadaeb",
".N c #ddddee",
"#m c #dedeee",
"#f c #e6e6f2",
"#g c #e7e7f3",
"#y c #eeeef7",
"#H c #eeeefb",
"#x c #efeff7",
"#o c #f3f3fa",
"#n c #f6f6fb",
"QtQtQtQt.#QtQtQtQtQtQt.#QtQtQtQt",
"QtQtQtQt.#QtQt.a.bQt.c.dQtQtQtQt",
"QtQtQtQt.#.e.f.g.h.i.j.k.lQtQtQt",
"QtQtQt.m.n.o.p.q.r.s.t.u.vQtQtQt",
"QtQtQt.w.x.y.z.A.B.C.D.E.F.GQtQt",
".#.#.#.H.I.J.#.#.#.#.K.L.M.N.O.#",
"Qt.P.Q.R.SQtQtQtQtQt.T.U.V.W.XQt",
".m.Y.Z.0.1QtQtQtQtQt.2.V.3.4.5Qt",
"Qt.5.6.u.nQtQtQtQt.7.8.9#.##QtQt",
"Qt#a#b#c.#QtQtQt#d#e#f#g#hQtQtQt",
"Qt#i#j.r.#Qt#k#l#m#f#n#o#pQtQtQt",
"Qt#q#r#s#t#u#v#w.o#x#y#z#AQtQtQt",
".#.##B.m#C#D#E.h.4.j#F.n#G.#.#.#",
"QtQtQtQt.##H.W#.##QtQt.#QtQtQtQt",
"QtQtQtQt.#.b.v.1QtQtQt.#QtQtQtQt",
"QtQtQtQt.#QtQtQtQtQtQt.#QtQtQtQt"};
