/* XPM */
static const char *connected_xpm[]={
"16 16 8 1",
". c None",
"# c #000000",
"c c #303030",
"f c #585858",
"e c #808080",
"b c #a0a0a0",
"d c #c3c3c3",
"a c #ffffff",
".............#ab",
"......###...#ab#",
".....#aaa#.#ab#.",
"....#a...a#ab#..",
"...###b...ac#...",
"..#ad##b...ac...",
".#a..d#cb...a#..",
"#ed...d##b..d#..",
"#fed...d#cbde#..",
"#ffed...d##ef#..",
".#fded..db#f#...",
"..#abed.be##....",
".#abefebef#.....",
"#ab##feef#......",
"ab#..#ff#.......",
"b#....##........"};
