/* XPM */
static const char * connect_no_xpm[] = {
"16 16 11 1",
" 	c None",
".	c #FFFF00",
"+	c #C0C000",
"@	c #000000",
"#	c #404000",
"$	c #FFFFFF",
"%	c #C3C3C3",
"&	c #DCDCDC",
"*	c #808080",
"=	c #585858",
"-	c #A0A0A0",
"                ",
"          .+    ",
"     @@  .+#    ",
"    @$%@.+#     ",
"   @$&&%@#   .+ ",
"  @*%&&&%@  .+# ",
"  @=*%&&&%@.+#  ",
"  @==*%&&&%@#   ",
"   @=%*%&&%-@   ",
"    @$-*%&-*@   ",
"   @$-*=*-*=@   ",
"  @$-@@=**=@    ",
"  $-@  @==@     ",
"  -@    @@      ",
"                ",
"                "};
