/* XPM */
static const char * contexthelp_xpm[] = {
"16 16 5 1",
" 	c None",
".	c #000000",
"+	c #5D5D5D",
"@	c #000000",
"#	c #000080",
"         ####@  ",
"        ######@ ",
"@      ##@   ##@",
"@@     #@     #@",
"@@@    ##@    #@",
"@@@@    ##   ##@",
"@@@@@       ##@ ",
"@@@@@@     ##@  ",
"@@@@@@@   ##@   ",
"@@@@@@@@  ##@   ",
"@@@@@      @    ",
"@@ @@           ",
"@   @@    ##@   ",
"    @@    ##@   ",
"     @@         ",
"     @@         "};
