/* XPM */
static const char * coords_xpm[] = {
"16 16 9 1",
" 	c None",
".	c #B29060",
"+	c #DEB573",
"@	c #000000",
"#	c #D6AD73",
"$	c #DEB57B",
"%	c #666666",
"&	c #DEBD73",
"*	c #DEAD6B",
"      .++@###$+#",
"      .+#@+++$$#",
"      .++@+##$++",
"@ %@% .$+@#+#$++",
"@ @ @ .$+@##+$++",
"@ %@@ .&*@++#$++",
"@   @ .+*@@@@@@@",
"@ @@% .++++##$$$",
"      .$*++##$++",
"      ..........",
"                ",
"        %@@%    ",
"        @  @    ",
"        @@@@    ",
"        @  @    ",
"        @  @    "};
