/* XPM */
static const char * down_xpm[] = {
"16 16 50 1",
" 	c None",
".	c #124D6F",
"+	c #254A64",
"@	c #18425F",
"#	c #0D324C",
"$	c #A0CBDF",
"%	c #EFF3FC",
"&	c #D3E5F0",
"*	c #64A3BD",
"=	c #071620",
"-	c #E0F1FB",
";	c #5FC0D8",
">	c #8FCCE2",
",	c #2B91AE",
"'	c #06141D",
")	c #0EADCB",
"!	c #40D1DB",
"~	c #2695B1",
"{	c #06141F",
"]	c #0E97BF",
"^	c #46DBE6",
"/	c #1F95B2",
"(	c #05151E",
"_	c #0D3652",
":	c #BFDFEE",
"<	c #0E94B9",
"[	c #1BBAD1",
"}	c #1299BB",
"|	c #0E5775",
"1	c #114560",
"2	c #144059",
"3	c #0B293E",
"4	c #010001",
"5	c #337F9E",
"6	c #DFEFF8",
"7	c #A7DCEC",
"8	c #54BDD7",
"9	c #0E8FB6",
"0	c #15C1DA",
"a	c #48DFE9",
"b	c #1CA2C3",
"c	c #106589",
"d	c #03060C",
"e	c #FFFFFF",
"f	c #0E9EC3",
"g	c #0FA0C4",
"h	c #060F19",
"i	c #14A5C9",
"j	c #050B12",
"k	c #10698F",
"                ",
"                ",
"     ...+@#     ",
"     .$%&*=     ",
"     .-;>,'     ",
"     .%)!~{     ",
"     +-]^/(     ",
" _..++:<[}|1234 ",
"  _56789]0abcd  ",
"   _5ef]gabch   ",
"    _5eiabcj    ",
"     _56bcj     ",
"      _kch      ",
"       _d       ",
"                ",
"                "};
