/* XPM */
static const char * editpaste_xpm[] = {
"16 16 103 2",
"  	c None",
". 	c #232110",
"+ 	c #716B32",
"@ 	c #8A7E2D",
"# 	c #5A5000",
"$ 	c #3C3C3C",
"% 	c #A49941",
"& 	c #FFFFFF",
"* 	c #D2CC8F",
"= 	c #ABA062",
"- 	c #3D3D3D",
"; 	c #E2E2E2",
"> 	c #DCDCDC",
", 	c #86761F",
"' 	c #F6F6DB",
") 	c #BBB574",
"! 	c #857414",
"~ 	c #C2C2C2",
"{ 	c #BFBFBF",
"] 	c #BCBCBC",
"^ 	c #292929",
"/ 	c #A2A2A2",
"( 	c #9F9F9F",
"_ 	c #4B452A",
": 	c #7D7D7D",
"< 	c #787878",
"[ 	c #747474",
"} 	c #262626",
"| 	c #9C9C9C",
"1 	c #999999",
"2 	c #959595",
"3 	c #444444",
"4 	c #666666",
"5 	c #242424",
"6 	c #D5D5D5",
"7 	c #9B9B9B",
"8 	c #969696",
"9 	c #939393",
"0 	c #DEDEDE",
"a 	c #6D6D6D",
"b 	c #424242",
"c 	c #1C1C1C",
"d 	c #CFCFCF",
"e 	c #979797",
"f 	c #909090",
"g 	c #707070",
"h 	c #FBF7F4",
"i 	c #C9C9C9",
"j 	c #929292",
"k 	c #919191",
"l 	c #8F8F8F",
"m 	c #8D8D8D",
"n 	c #3B3B3B",
"o 	c #8E8E8E",
"p 	c #8B8B8B",
"q 	c #898989",
"r 	c #F9F6F2",
"s 	c #F8F0E5",
"t 	c #E1DEDC",
"u 	c #BDB4AC",
"v 	c #000000",
"w 	c #3A3A3A",
"x 	c #8A8A8A",
"y 	c #878787",
"z 	c #858585",
"A 	c #F5E9DA",
"B 	c #F1E3CE",
"C 	c #BDAC92",
"D 	c #393939",
"E 	c #B6B6B6",
"F 	c #838383",
"G 	c #818181",
"H 	c #F0DDC1",
"I 	c #BEA585",
"J 	c #AFAFAF",
"K 	c #808080",
"L 	c #7F7F7F",
"M 	c #7E7E7E",
"N 	c #EDD6B8",
"O 	c #BFA47F",
"P 	c #383838",
"Q 	c #7C7C7C",
"R 	c #7B7B7B",
"S 	c #7A7A7A",
"T 	c #EBD0AA",
"U 	c #C0A077",
"V 	c #2E2E2E",
"W 	c #6A6A6A",
"X 	c #696969",
"Y 	c #686868",
"Z 	c #E9C9A0",
"` 	c #C09F71",
" .	c #020202",
"..	c #050505",
"+.	c #C6BEB3",
"@.	c #C4B9A9",
"#.	c #C3B59E",
"$.	c #C3AF94",
"%.	c #C2AB89",
"&.	c #C2A67F",
"*.	c #C1A174",
"=.	c #C09B6B",
"-.	c #303030",
"          . + @ #               ",
"  $ $ $ $ % & * = # $ $ $ $     ",
"- ; > > , ' * ) % ! # ~ { ] ^   ",
"$ > / ( , # # _ _ _ _ : < [ }   ",
"$ > ( | 1 2 3 3 3 3 3 3 3 4 5   ",
"$ 6 7 1 8 9 3 0 0 0 0 0 a b c   ",
"$ d e 2 9 f 3 0 & & & & g h b   ",
"$ i j k l m 3 0 & & & & g g b b ",
"n ~ o m p q 3 0 & & & r s t u v ",
"w ] x q y z 3 0 & & r s A B C v ",
"D E z z F G 3 0 & r s A B H I v ",
"D J G K L M 3 0 r s A B H N O v ",
"P J : Q R S 3 0 s A B H N T U v ",
"V 4 W W X Y 3 0 A B H N T Z ` v ",
"   . . . ...3 +.@.#.$.%.&.*.=.v ",
"            3 v v v v v v v v -."};
