/* XPM */
static const char * exit_xpm[] = {
"17 16 4 1",
" 	c None",
".	c #000000",
"+	c #303030",
"@	c #757575",
"                 ",
"                 ",
"        ..       ",
"        ..       ",
"     .  ..  .    ",
"    +.. .. ..+   ",
"   @..  ..  ..@  ",
"   +.@  ..  @.+  ",
"   ..   ..   ..  ",
"   ..   ..   ..  ",
"   +.@  ..  @.+  ",
"   @..      ..@  ",
"    +..@  @..+   ",
"     +......+    ",
"      @+..+@     ",
"                 "};
