/* XPM */
static const char * filesaveas_xpm[] = {
"16 16 108 2",
"  	c None",
". 	c #F7B975",
"+ 	c #CB925C",
"@ 	c #3E3E3E",
"# 	c #464646",
"$ 	c #111111",
"% 	c #A0A0A0",
"& 	c #EF8819",
"* 	c #FCAC4F",
"= 	c #EDB676",
"- 	c #BE9165",
"; 	c #7A5739",
"> 	c #9E9B99",
", 	c #525252",
"' 	c #676767",
") 	c #343434",
"! 	c #5C2E02",
"~ 	c #CF6904",
"{ 	c #F18C1D",
"] 	c #F7A648",
"^ 	c #EEC086",
"/ 	c #D09765",
"( 	c #B49881",
"_ 	c #DBDAD9",
": 	c #FFFFFF",
"< 	c #DBDBDB",
"[ 	c #636363",
"} 	c #000000",
"| 	c #7C440C",
"1 	c #B15A03",
"2 	c #F17D04",
"3 	c #F7B667",
"4 	c #EEA875",
"5 	c #E6C1AA",
"6 	c #F9F9F9",
"7 	c #EAEAEA",
"8 	c #575757",
"9 	c #4E4E4E",
"0 	c #332516",
"a 	c #502801",
"b 	c #D06B1A",
"c 	c #D1835E",
"d 	c #DE9D7F",
"e 	c #E6C8BA",
"f 	c #6F6F6F",
"g 	c #C9C9C9",
"h 	c #050505",
"i 	c #292929",
"j 	c #4F4F4F",
"k 	c #5E5E5E",
"l 	c #413832",
"m 	c #755F50",
"n 	c #896650",
"o 	c #825E49",
"p 	c #3A3A3A",
"q 	c #BEBEBE",
"r 	c #9E9E9E",
"s 	c #2C2C2C",
"t 	c #7C7C7C",
"u 	c #D8D8D8",
"v 	c #DADADA",
"w 	c #E8E8E8",
"x 	c #EDEDED",
"y 	c #FCFCFC",
"z 	c #6B6B6B",
"A 	c #959595",
"B 	c #808080",
"C 	c #767676",
"D 	c #818181",
"E 	c #666666",
"F 	c #B8B8B8",
"G 	c #FBFBFB",
"H 	c #CCCCCC",
"I 	c #030303",
"J 	c #737373",
"K 	c #7A7A7A",
"L 	c #7E7E7E",
"M 	c #828282",
"N 	c #6A6A6A",
"O 	c #FAFAFA",
"P 	c #505050",
"Q 	c #9D9D9D",
"R 	c #333333",
"S 	c #7B7B7B",
"T 	c #585858",
"U 	c #787878",
"V 	c #696969",
"W 	c #494949",
"X 	c #8A8A8A",
"Y 	c #565656",
"Z 	c #555555",
"` 	c #949494",
" .	c #E6E6E6",
"..	c #424242",
"+.	c #515151",
"@.	c #535353",
"#.	c #D4D4D4",
"$.	c #0C0C0C",
"%.	c #353535",
"&.	c #474747",
"*.	c #ECECEC",
"=.	c #919191",
"-.	c #7D7D7D",
";.	c #404040",
">.	c #858585",
",.	c #323232",
"'.	c #D0D0D0",
").	c #1C1C1C",
". +     @ # $ %                 ",
"& * = - ; > , ' ) ) %           ",
"! ~ { ] ^ / ( _ : < [ ) ) %     ",
"  } | 1 2 3 4 5 6 : : : 7 8 ) ) ",
"    9 0 a b c d e : : : : f g h ",
"    i j k l m n o : : : 7 p q , ",
"  r s t u v w x x : : y z A , % ",
"  j B C D E F : G G : 6 p H I   ",
"  i C J K L M M N D O B P Q ,   ",
"  R S T U T T z V ' 8 W X , %   ",
"Y D Z ` :  .D ..+.@.8 @ #.$.    ",
"%.@ &.*. .*. .: : &.W W =.,     ",
"-.) } 7 *.7 *.7 ;.+.W >., %     ",
"    % ) ) )  .*.,.+.@ '.).      ",
"          % ) ) ) @ 8 Q ,       ",
"                % ) ) )         "};
