/* XPM */
static const char * fileopen_xpm[] = {
"16 16 99 2",
"  	c None",
". 	c #FFFFFF",
"+ 	c #000000",
"@ 	c #E5A566",
"# 	c #FED39A",
"$ 	c #FEC585",
"% 	c #FDC587",
"& 	c #FEC282",
"* 	c #F8AC62",
"= 	c #FEC88A",
"- 	c #4E331B",
"; 	c #53504D",
"> 	c #55524F",
", 	c #5C5A57",
"' 	c #54514E",
") 	c #565350",
"! 	c #C4864E",
"~ 	c #524F4C",
"{ 	c #F5F5F5",
"] 	c #ECECEC",
"^ 	c #E4E4E4",
"/ 	c #DCDCDC",
"( 	c #D4D4D4",
"_ 	c #CBCBCB",
": 	c #C4C4C4",
"< 	c #BCBCBC",
"[ 	c #B5B5B5",
"} 	c #B3B3B3",
"| 	c #303030",
"1 	c #4A3119",
"2 	c #DBDBDB",
"3 	c #DFDFDE",
"4 	c #E8E8E7",
"5 	c #E6E6E4",
"6 	c #D2D2D1",
"7 	c #C7C7C6",
"8 	c #BABAB9",
"9 	c #ADADAC",
"0 	c #A0A09F",
"a 	c #949493",
"b 	c #494948",
"c 	c #B77D44",
"d 	c #53514E",
"e 	c #DADADA",
"f 	c #DBDBDA",
"g 	c #E1E1E0",
"h 	c #DDDDDC",
"i 	c #D6D6D5",
"j 	c #CBCBCA",
"k 	c #C1C1C0",
"l 	c #B6B6B5",
"m 	c #A9A9A8",
"n 	c #686867",
"o 	c #222221",
"p 	c #493018",
"q 	c #CDCDCD",
"r 	c #CACAC9",
"s 	c #D5D5D4",
"t 	c #D2D2D0",
"u 	c #CCCCCB",
"v 	c #C2C2C1",
"w 	c #B9B9B8",
"x 	c #AFAFAE",
"y 	c #A2A2A1",
"z 	c #959594",
"A 	c #CECECE",
"B 	c #BEBEBC",
"C 	c #C4C4C2",
"D 	c #C6C6C5",
"E 	c #C3C3C2",
"F 	c #BFBFBE",
"G 	c #AEAEAD",
"H 	c #A5A5A4",
"I 	c #9E9E9D",
"J 	c #6F6F6E",
"K 	c #121212",
"L 	c #0A0A0A",
"M 	c #BDBDBD",
"N 	c #A6A6A5",
"O 	c #AAAAA8",
"P 	c #ADADAB",
"Q 	c #AEAEAC",
"R 	c #ABABAA",
"S 	c #A7A7A6",
"T 	c #A1A1A0",
"U 	c #9A9A99",
"V 	c #949492",
"W 	c #8D8D8B",
"X 	c #232323",
"Y 	c #4A4A4A",
"Z 	c #4A4A49",
"` 	c #4C4C4B",
" .	c #4C4C4C",
"..	c #4B4B4A",
"+.	c #464646",
"@.	c #434343",
"#.	c #414140",
"$.	c #343433",
"%.	c #1F1F1E",
"            + + + +             ",
"          + +   + + + +   +     ",
"        +           + + + +     ",
"                      + + +     ",
"                    + + + +     ",
"  - - - -                       ",
"- @ # $ @ - - - - - - -         ",
"- # % & * * * * * * * * +       ",
"- = & - ; ; > , ' ' ) ) ' + + + ",
"- & ! ~ { { ] ^ / ( _ : < [ } | ",
"- & 1 2 3 4 5 3 6 7 8 9 0 a b   ",
"- c d e f g h i j k l m 0 n o   ",
"- p q r s s t u v w x y z b     ",
"- ) A B C D E F l G H I J K     ",
"- M N O P Q R S T U V W b       ",
"X Y Z `  .` ..b +.@.#.$.%.      "};
