/* XPM */
static const char *looking_xpm[]={
"16 16 13 1",
". c None",
"a c #303030",
"e c #9f9f9f",
"d c #adadad",
"f c #c6c6c6",
"h c #d0d0d0",
"i c #d2d2d2",
"# c #d4d4d4",
"k c #d5d5d5",
"c c #d7d7d7",
"g c #d8d8d8",
"j c #d9d9d9",
"b c #dadada",
"................",
"................",
"......#aa#......",
"......aaaab.....",
"......aaaac.....",
"......aaaac.....",
"......aaaac.....",
"......daaec.....",
".......aafg.....",
".......aah......",
".......aah......",
".......aah......",
"........ic......",
".......aaj......",
".......aah......",
"........kg......"};
