/* XPM */
static const char *navIntersection_xpm[]={
"16 16 5 1",
". c None",
"# c #000000",
"b c #585858",
"c c #c3c3c3",
"a c #ffffff",
"................",
"................",
"......#..#......",
".....##..##.....",
"....###..###....",
"...####..####...",
"..#####..#####..",
"...####..####...",
"....###..###....",
".....##..##.....",
"......#..#......",
"..aa........bb..",
".aaaa......bcbb.",
".aaaa......bbbb.",
"..aa........bb..",
"................"};
