/* XPM */
static const char *new_top[]={
"16 16 14 1",
". c None",
"d c #000000",
"# c #0058c0",
"a c #0080ff",
"g c #585858",
"h c #58a8ff",
"f c #800000",
"k c #808080",
"l c #a0a0a0",
"i c #a8dcff",
"b c #c00000",
"j c #c3c3c3",
"c c #ff0000",
"e c #ffc0c0",
"......#a........",
"......#a........",
"......#a........",
"......#a........",
"......#a........",
"......#a.b..c...",
"......dd.beffc..",
".....ddddbf..fc.",
".....#ddgfff..f.",
"....#hijkg....f.",
"...#hi..jkg...f.",
"..#hi....jkg..b.",
".#hi......jkg...",
"#hi........jlg..",
"hi..........jlg.",
"................"};
