/* XPM */
static const char *new_bottom[]={
"16 16 13 1",
". c None",
"e c #000000",
"# c #0058c0",
"a c #0080ff",
"g c #585858",
"h c #58a8ff",
"b c #800000",
"j c #808080",
"k c #a0a0a0",
"f c #c00000",
"i c #c3c3c3",
"c c #ff0000",
"d c #ffc0c0",
"......#ab.......",
"......#a.bc.....",
"......#a..bc....",
"......#a.d.b....",
"......#a.c.b....",
"......#a.cbd....",
"......ee.cfff...",
".....eeee.......",
".....#eeg.......",
"....##hijg......",
"...##h..ijg.....",
"..##h....ijg....",
".##h......ijg...",
"##h........ikg..",
"#h..........ikg.",
"................"};
