/* XPM */
static const char *new_up[]={
"16 16 13 1",
". c None",
"b c #000000",
"# c #0058c0",
"a c #0080ff",
"c c #585858",
"d c #58a8ff",
"i c #800000",
"f c #808080",
"j c #a0a0a0",
"k c #c00000",
"e c #c3c3c3",
"g c #ff0000",
"h c #ffc0c0",
"......#a........",
"......#a........",
"......#a........",
"......#a........",
"......#a........",
"......#a........",
"......bb........",
".....bbbb.......",
".....#bbc.......",
"....##defc......",
"...##d..efc.....",
"..##d.g..efc....",
".##d.gh...efc...",
"##d.giiiiiiejc..",
"#d...k......ejc.",
"......k........."};
