/* XPM */
static const char *new_start[]={
"16 16 13 1",
". c None",
"f c #000000",
"# c #0058c0",
"a c #0080ff",
"g c #585858",
"h c #58a8ff",
"d c #800000",
"j c #808080",
"k c #a0a0a0",
"e c #c00000",
"i c #c3c3c3",
"b c #ff0000",
"c c #ffc0c0",
"......#a........",
"......#a........",
"......#a........",
"......#a.bc.....",
"......#acb......",
"......#adddeb...",
"......ff.d..db..",
".....ffff.d..db.",
".....#ffg.....d.",
"....##hijg....d.",
"...##h..ijg...d.",
"..##h....ijg..e.",
".##h......ijg...",
"##h........ikg..",
"#h..........ikg.",
"................"};
