/* XPM */
static const char *newboard_xpm[]={
"16 16 2 1",
"# c #000000",
". c #c69125",
"....#......#....",
"....#......#....",
"....#......#....",
"....#......#....",
"....#.....###...",
"################",
"....#.....###...",
"....#......#....",
"....#......#....",
"....#......#....",
"....#......#....",
"....#......#....",
"################",
"....#......#....",
"....#......#....",
"....#......#...."};
