/* XPM */
static const char *not_looking_xpm[]={
"16 16 66 2",
"Qt c None",
".a c #303030",
".O c #4f4040",
".N c #681313",
".r c #7b1d1d",
".J c #7c0909",
".v c #962828",
".j c #9a4141",
".M c #9d0000",
".P c #a03030",
".o c #a22f2f",
".3 c #a50000",
".W c #a62f2f",
".y c #a63636",
".U c #a65d5d",
".G c #ac5757",
".C c #ac5d5d",
".0 c #ac6262",
".5 c #ad5959",
".B c #b00000",
".F c #b30000",
".u c #b42828",
".T c #b60707",
".t c #bc0707",
".Z c #bf0000",
".4 c #c38c8c",
".V c #c7baba",
".p c #cb0202",
".h c #cb3333",
".s c #ce0c0c",
".m c #ce6262",
".b c #cfbfbf",
".K c #d00000",
".L c #d01414",
".1 c #d0d0d0",
".Q c #d20909",
".x c #d2c6c6",
".7 c #d2d2d2",
".w c #d3bdbd",
".2 c #d3c8c8",
".E c #d40000",
".# c #d4d4d4",
"#. c #d5d5d5",
".l c #d60000",
".c c #d78c8c",
".H c #d7d1d1",
".8 c #d7d7d7",
".A c #d80000",
".6 c #d8d4d4",
"## c #d8d8d8",
".9 c #d9d9d9",
".n c #dacfcf",
".i c #db0f0f",
".e c #dbd2d2",
".D c #dc7878",
".g c #ddd4d4",
".Y c #e08c8c",
".z c #e50000",
".I c #e58888",
".d c #e59a9a",
".k c #e65d5d",
".q c #e80404",
".f c #e88c8c",
".R c #e88f8f",
".X c #eb4949",
".S c #eb6262",
"QtQtQtQtQtQtQtQtQtQtQtQtQtQtQtQt",
"QtQtQtQtQtQtQtQtQtQtQtQtQtQtQtQt",
"QtQtQtQtQtQt.#.a.a.#QtQtQtQtQtQt",
"QtQtQt.b.c.d.a.a.a.a.e.f.f.gQtQt",
"QtQtQt.b.h.i.j.a.a.a.k.l.l.mQtQt",
"QtQtQtQt.n.o.p.q.r.s.t.u.v.wQtQt",
"QtQtQtQtQt.x.y.z.A.B.CQtQtQtQtQt",
"QtQtQtQtQtQt.D.E.F.G.HQtQtQtQtQt",
"QtQtQtQtQt.I.A.F.J.K.IQtQtQtQtQt",
"QtQtQtQtQt.L.M.N.O.P.Q.RQtQtQtQt",
"QtQtQt.g.S.T.U.a.a.V.W.X.gQtQtQt",
"QtQtQt.Y.Z.0Qt.a.a.1.2.3.YQtQtQt",
"QtQtQt.4.5.6QtQt.7.8.6.5.4QtQtQt",
"QtQtQt.6.6QtQt.a.a.9Qt.6.6QtQtQt",
"QtQtQtQtQtQtQt.a.a.1QtQtQtQtQtQt",
"QtQtQtQtQtQtQtQt#.##QtQtQtQtQtQt"};
