/* XPM */
static char * not_seeking_xpm[] = {
"22 22 131 2",
"  	c None",
". 	c #190F0F",
"+ 	c #494747",
"@ 	c #514F4F",
"# 	c #666264",
"$ 	c #808080",
"% 	c #817F7F",
"& 	c #999797",
"* 	c #7D6F63",
"= 	c #4E423A",
"- 	c #2E2422",
"; 	c #292729",
"> 	c #716F6F",
", 	c #8E8A8C",
"' 	c #918F8F",
") 	c #B4ACB4",
"! 	c #E4DCE4",
"~ 	c #C0C0C0",
"{ 	c #706258",
"] 	c #463A32",
"^ 	c #0E0A0A",
"/ 	c #000000",
"( 	c #2E1D1A",
"_ 	c #382220",
": 	c #332A25",
"< 	c #231515",
"[ 	c #3D2823",
"} 	c #744B44",
"| 	c #482D28",
"1 	c #5F3D39",
"2 	c #6A453E",
"3 	c #52352E",
"4 	c #9C7564",
"5 	c #84554C",
"6 	c #916057",
"7 	c #A98C77",
"8 	c #B1947F",
"9 	c #7A5046",
"0 	c #F4CC7C",
"a 	c #946B5C",
"b 	c #A78471",
"c 	c #916357",
"d 	c #B49C84",
"e 	c #C7D7E4",
"f 	c #CDE4EE",
"g 	c #C9E1EE",
"h 	c #C7DCEA",
"i 	c #C0D1DA",
"j 	c #C7DCE9",
"k 	c #C6D8E2",
"l 	c #C3CFD0",
"m 	c #181A1B",
"n 	c #636B71",
"o 	c #C2DDE8",
"p 	c #C5E2ED",
"q 	c #BEDAEA",
"r 	c #B4CBD9",
"s 	c #B6C5C8",
"t 	c #AEBCBA",
"u 	c #AEBEBD",
"v 	c #BFCBCB",
"w 	c #C0C9C9",
"x 	c #A5BAC8",
"y 	c #BCD1E0",
"z 	c #BDCCD3",
"A 	c #C1CAC8",
"B 	c #AEC0CA",
"C 	c #BED5E3",
"D 	c #B3CFDF",
"E 	c #9BBFD2",
"F 	c #90ADC6",
"G 	c #9BB0C1",
"H 	c #A0B2BD",
"I 	c #A2B4BA",
"J 	c #A0B2B7",
"K 	c #A1B0B7",
"L 	c #C6D8DF",
"M 	c #C0D2DE",
"N 	c #B8C9D2",
"O 	c #97A1A5",
"P 	c #B9CAD4",
"Q 	c #CCE1EC",
"R 	c #C7D8E2",
"S 	c #C5D0D0",
"T 	c #101112",
"U 	c #AABEC7",
"V 	c #BCD7E6",
"W 	c #B2CBDB",
"X 	c #9DB7C5",
"Y 	c #97B2C4",
"Z 	c #C4DCE8",
"` 	c #C7DDEA",
" .	c #C1D2DB",
"..	c #B9C5C3",
"+.	c #A7B6BC",
"@.	c #C9E0EB",
"#.	c #C1D2D9",
"$.	c #C3CDC9",
"%.	c #B3C4CB",
"&.	c #C0D5E1",
"*.	c #BED4E2",
"=.	c #BFCCD1",
"-.	c #BEC7BE",
";.	c #121415",
">.	c #424A51",
",.	c #566068",
"'.	c #525355",
").	c #464244",
"!.	c #A3B1BA",
"~.	c #BCD4E3",
"{.	c #BCD1DE",
"].	c #B6C0C2",
"^.	c #898385",
"/.	c #73686F",
"(.	c #9FAAB7",
"_.	c #9DAAB7",
":.	c #969597",
"<.	c #715353",
"[.	c #664144",
"}.	c #7B676F",
"|.	c #837D84",
"1.	c #0E0606",
"2.	c #140808",
"3.	c #251B1C",
"4.	c #373034",
"5.	c #443B3E",
"6.	c #594648",
"7.	c #432424",
"8.	c #401B1B",
"9.	c #502C2E",
"0.	c #59363A",
"        . + @ + @ # # $ % & * # = -         ",
"      ; + # @ + # > , ' ) ! ~ * { ] ;       ",
"      ; ; ; ^ / / / ^ . . ( _ ^ : ] ;       ",
"        ^ . / / / / ^ . < [ _ < [ <         ",
"        . < ^ / / ^ ^ . ( _ ( _ } _         ",
"        < [ . / ^ ^ / . < ( | 1 2 _         ",
"        < 3 < / ^ / < 4 2 | _ 5 4 |         ",
"        _ 2 ( . . ( 4 } 1 3 | 6 7 |         ",
"        _ 6 [ ( ^ _ 8 9 3 3 } 4 0 2         ",
"        ( a } _ . ( 6 5 } 1 9 b 7 _         ",
"        . 6 4 2 _ . [ 6 } 1 5 7 3 <         ",
"          3 8 c 3 < ( ( | } 5 } _ <         ",
"          / 6 d 5 3 ( _ [ } b 1 .           ",
"            ^ 2 4 6 3 | 1 5 [ <             ",
"            e ^ < [ _ 3 | < .               ",
"          f g h i ^ / ^ / ^ j k l           ",
"      m n o p q r s t u v w x y z A         ",
"      B C D E F G H I J K L M N O P Q R S   ",
"    T U V W X Y Z `  ...+.@.` #.$.%.&.*.=.-.",
"  / / ;.>.,.'.).!.~.{.].^./.(._.:.<.[.}.|.  ",
"      / /   1.2.3.4.5.6.7.8.9.0.            ",
"                                            "};
