/* XPM */
static const char *not_quiet_xpm[]={
"22 22 246 2",
"Qt c None",
".W c #0a2a74",
".q c #0c2b77",
"bJ c #082361",
"#a c #092365",
"aP c #0b2a77",
"bl c #0b286f",
"by c #072367",
"a7 c #072676",
".X c #0d2d7c",
"bk c #0a2157",
"bY c #6d7db1",
".d c #0d2c77",
"bX c #37456d",
"bZ c #6a7aad",
".G c #0f2d7c",
"aO c #092771",
".e c #0e2d7b",
".# c #0e2d7a",
"bP c #102353",
"bT c #2d427c",
".c c #0e2d7b",
".a c #0e2d7c",
".b c #0e2e7d",
"#t c #0c276d",
"bx c #082264",
"bI c #08205d",
"bU c #6576ac",
".p c #092977",
".f c #072878",
".F c #0d2a76",
"#b c #163481",
"bW c #526397",
"ay c #112f7a",
".r c #0c2d7c",
"bm c #0b266b",
"bz c #0d2a71",
"## c #13317a",
".V c #112f7b",
"bK c #2a458b",
"bj c #0c2669",
"ax c #163279",
"a6 c #0c2666",
"bH c #0a266c",
"a8 c #18357f",
"aQ c #1c3a83",
"#N c #18357b",
"#2 c #385194",
"ai c #395395",
".o c #11307c",
"bO c #203774",
"aj c #27438a",
"bS c #50639a",
".g c #163481",
"bw c #173378",
".H c #1b3984",
".Y c #213e87",
"bV c #6173aa",
".n c #2d478c",
".E c #1d3a84",
"#u c #27438b",
".s c #2e498f",
".h c #324c90",
"bn c #223d80",
"aN c #455d99",
"bG c #203a79",
"bF c #3e5692",
"bi c #455b98",
"bE c #50669f",
"bQ c #596da5",
"bN c #687aab",
"bD c #697cad",
".I c #7a8ab9",
".U c #5267a2",
".m c #445c9b",
"#O c #465e9d",
"#3 c #48609e",
"#s c #4b619d",
".i c #4d64a0",
"a1 c #4e4f52",
"#7 c #585859",
"bv c #586ca3",
"a5 c #5a6ea5",
"#6 c #5d5d5f",
"aX c #5e5e60",
".l c #5f73aa",
"aW c #636465",
"bA c #6577ab",
"a9 c #6578ab",
".j c #6578ad",
"aV c #67686a",
"#D c #68686b",
".k c #697cb0",
".D c #6a7cb0",
"bo c #6d7fb0",
"#. c #6e7fb2",
"az c #7081b3",
"ab c #727376",
"ad c #75767b",
"#c c #7687b8",
"ac c #78787c",
"aU c #7b7c81",
"#n c #808185",
".t c #8090bc",
"#m c #828386",
"aR c #8695bf",
"#8 c #87878c",
"#C c #929396",
"#M c #94a0c9",
"aw c #96a2c9",
"bR c #96a3c7",
".Z c #98a4ca",
"#y c #9b9da5",
"aY c #9d9da2",
"aa c #9fa0a6",
"#9 c #a0a1a6",
"#H c #a1a2a7",
"#o c #a1a3a9",
"#G c #a3a3a8",
"#B c #a3a4a8",
"a2 c #a5a7b1",
"bu c #a7b2d1",
"aZ c #a8a8ad",
".1 c #a9abb3",
"bC c #aab5d1",
"#F c #abacb0",
"#E c #aeafb4",
"#f c #b0b2bb",
"#1 c #b1b8d8",
"bh c #b1bad6",
"#g c #b2b4bc",
"ah c #b4bbda",
".C c #b6bed9",
"#I c #b7b8c0",
"aT c #b7b9c2",
"#v c #bac0dd",
"a. c #bbbdc3",
"bL c #bcc4dc",
"aG c #c0c2cb",
"aK c #c0c3d1",
"ak c #c0c6e0",
"#r c #c1c6e0",
"aM c #c1c8e1",
"aF c #c2c4cd",
"#0 c #c2c7e1",
".u c #c2c9e0",
"#j c #c3c3c7",
"#k c #c3c4c7",
"aJ c #c4c6d2",
"ag c #c4c9e2",
"bp c #c4cbe0",
"aC c #c6c8d5",
"#L c #c6cbe4",
"a4 c #c6cce3",
".T c #c7cde3",
"aD c #c8cad5",
"b. c #c8cee3",
"af c #c9cee5",
"aE c #caccd6",
"#4 c #cacee5",
"#P c #cacfe5",
"av c #ccd0e7",
"aI c #ced0dc",
"al c #ced2e7",
"aL c #ced3e8",
"bM c #cfd4e6",
"#w c #cfd4e8",
"#5 c #d0d4e8",
"#d c #d0d4e9",
"aA c #d0d5e8",
"am c #d2d6e9",
"#l c #d3d4d8",
".9 c #d4d8ea",
"a3 c #d5d8e9",
"ae c #d5d8eb",
"aB c #d5d9eb",
"an c #d6d9eb",
"au c #d6daeb",
".B c #d8dceb",
".J c #d8dcec",
"#K c #d9dded",
"#Q c #dadded",
"bt c #dadeec",
"ao c #dbdeed",
"#q c #dbdeee",
"#Z c #dcdfee",
"bg c #dde0ee",
"aS c #dde0ef",
"#x c #dee1ef",
"ap c #dfe1ef",
".0 c #dfe2f0",
"#R c #e0e2f0",
"#e c #e0e3f0",
".v c #e0e4f0",
"#A c #e1e3eb",
"aq c #e1e3f0",
".8 c #e1e4f1",
"ar c #e2e4f1",
"as c #e2e5f1",
"at c #e2e5f2",
"#J c #e3e5f1",
"#S c #e3e5f2",
"#Y c #e3e6f1",
"bf c #e3e6f2",
"aH c #e4e6f0",
"#z c #e4e6f1",
".S c #e4e7f2",
"#i c #e5e5eb",
"#p c #e5e7f2",
".7 c #e5e8f3",
"#X c #e6e8f3",
"#T c #e7e9f3",
"a0 c #e7eaf3",
"be c #e8e9f3",
"a# c #e8eaf4",
".A c #e9ebf4",
"b# c #e9ecf5",
".K c #eaecf5",
"#U c #ebedf5",
"bd c #ecedf5",
"#V c #eceef6",
"#W c #edeef6",
".w c #edeff6",
"bs c #eeeff6",
".L c #eff0f7",
".z c #eff1f7",
"bc c #f0f1f7",
"ba c #f0f1f8",
"#h c #f0f2f8",
"bB c #f1f3f8",
".x c #f2f3f8",
"bb c #f2f3f9",
".2 c #f3f4f9",
".M c #f3f4fa",
".R c #f4f5f9",
".y c #f4f5fa",
".3 c #f6f7fb",
".6 c #f7f8fb",
".N c #f8f8fb",
"bq c #f8f9fb",
".Q c #f8f9fc",
"br c #fafafc",
".4 c #fafafd",
".5 c #fbfbfd",
".O c #fcfcfd",
".P c #fcfdfe",
"QtQtQtQtQtQtQtQtQtQtQtQtQtQtQtQtQtQtQtQtQtQt",
"QtQtQtQtQtQtQtQtQtQtQtQtQtQtQtQtQtQtQtQtQtQt",
"QtQtQtQtQtQtQt.#.a.b.b.b.c.dQtQtQtQtQtQtQtQt",
"QtQtQtQt.e.f.g.h.i.j.k.l.m.n.o.p.qQtQtQtQtQt",
"QtQtQt.r.s.t.u.v.w.x.y.z.A.B.C.D.E.FQtQtQtQt",
"Qt.G.H.I.J.K.L.M.N.O.P.Q.R.L.K.S.T.U.V.WQtQt",
".X.Y.Z.0.1.A.L.2.3.4.5.6.2.L.K.7.8.9#.###aQt",
"#b#c#d#e#f#g.w#h#i#j#k#l#m#n#o#p#e#q#r#s#tQt",
"#u#v#w#x#y#z#A#B#C#D#E#F#G#H#I#J#x#K#L#M#NQt",
"#O#L#P#Q#R#S#T.A#U#V#W#U.A#X#Y#R#Z.9#0#1#2Qt",
"#3#4#P#5#Q#6#7#8#9a.a#aaabacad#ZaeafagahaiQt",
"ajakalamanaoapaqarasatar#e#xaoau#davafawaxQt",
"ayazaAaB#KaCaDaEaFaGaH.7#YaIaJaKamaLaMaNaOQt",
"aPaQaRauaSaTaUaVaWaXaYaZa0aUa1a2a3a4a5a6QtQt",
"Qta7a8a9b..7b##Wba.xbbbcbdbebfbgbhbibjbkQtQt",
"QtQtblbmbnbobp#h.ybqbr.6bsbtbubvbwbxQtQtQtQt",
"QtQtQtQtbybzbAbB.2bCbDbEbFbGbHbIbJQtQtQtQtQt",
"QtQtQtQtQtbKbLbMbNbObPQtQtQtQtQtQtQtQtQtQtQt",
"QtQtQtQtQtbQbRbSbTQtQtQtQtQtQtQtQtQtQtQtQtQt",
"QtQtQtQtbUbVbWbXQtQtQtQtQtQtQtQtQtQtQtQtQtQt",
"QtQtQtQtbYbZQtQtQtQtQtQtQtQtQtQtQtQtQtQtQtQt",
"QtQtQtQtQtQtQtQtQtQtQtQtQtQtQtQtQtQtQtQtQtQt"};
