/* XPM */
static const char *not_open_xpm[]={
"16 16 80 2",
"Qt c None",
".f c #303030",
"#b c #695d5d",
".A c #8a1d1d",
".Q c #8d8d8d",
".Z c #8e3636",
".z c #940909",
"#g c #959595",
".J c #969696",
".7 c #982121",
"#a c #9a5050",
".s c #9b9090",
".W c #9d0000",
".I c #9d4d4d",
".2 c #9d9595",
".C c #9d9d9d",
".R c #9e2c2c",
".t c #a22f2f",
".g c #a39b9b",
".0 c #a3a3a3",
".k c #a40b0b",
"#j c #a55959",
".E c #a63636",
".4 c #a65d5d",
".j c #a89797",
".O c #ac5757",
"#e c #ad5959",
"#h c #afafaf",
".H c #b00000",
".o c #b22929",
".N c #b30000",
".3 c #b60707",
".y c #b90404",
".n c #b9b9b9",
"## c #bf0000",
"#d c #c38c8c",
"#f c #c6c2c2",
".P c #c7c1c1",
".6 c #cabdbd",
".Y c #cb0202",
".a c #cccccc",
".q c #ce6262",
"#i c #cecaca",
".c c #cfbfbf",
".9 c #cfc7c7",
".S c #d00000",
".V c #d01414",
".X c #d0c0c0",
".e c #d18686",
".U c #d1d1d1",
".u c #d20909",
".D c #d2c6c6",
".B c #d3bdbd",
".M c #d40000",
".b c #d4d4d4",
".r c #d5d5d5",
".p c #d60000",
".x c #d61414",
".T c #d67878",
".d c #d78c8c",
".5 c #d7d1d1",
".G c #d80000",
"#l c #d8d4d4",
".# c #d9d9d9",
"#m c #dac8c8",
".K c #dadada",
".l c #db0f0f",
".1 c #dbdbdb",
".L c #dc7878",
"#n c #dcdada",
".i c #ddd4d4",
"#c c #df5959",
"#k c #dfc8c8",
"#. c #e08c8c",
".8 c #e13e3e",
".F c #e50000",
".w c #e58888",
".h c #e88c8c",
".m c #e88f8f",
".v c #f81414",
"QtQtQtQtQtQtQtQtQtQtQtQtQtQtQtQt",
"QtQtQtQtQtQtQtQtQtQtQtQtQtQtQtQt",
"QtQtQtQtQt.#.a.a.a.bQtQtQtQtQtQt",
"QtQtQt.c.d.e.f.f.f.f.g.h.h.iQtQt",
"QtQtQt.j.k.l.mQtQt.n.o.p.p.qQtQt",
"QtQt.r.f.s.t.u.v.w.x.y.z.A.BQtQt",
"QtQt.a.f.C.D.E.F.G.H.I.f.J.KQtQt",
"QtQt.a.f.CQt.L.M.N.O.P.f.Q.#QtQt",
"QtQt.a.f.C.w.G.N.R.S.T.f.Q.#QtQt",
"QtQt.U.f.C.V.W.O.X.E.Y.Z.0.#QtQt",
"QtQt.1.2.o.3.4.5Qt.6.7.8.9.1QtQt",
"QtQtQt#.###a.f.f.f.f#b.W#c.iQtQt",
"QtQtQt#d#e#f#g.Q.Q#h#i#j.S#kQtQt",
"QtQtQt#l#lQt.K.#.#.#.1#l#m#nQtQt",
"QtQtQtQtQtQtQtQtQtQtQtQtQtQtQtQt",
"QtQtQtQtQtQtQtQtQtQtQtQtQtQtQtQt"};
