/* XPM */
static const char *not_quiet_xpm[]={
"16 16 8 1",
"# c #303030",
"f c #585858",
"a c #800000",
"e c #a0a0a0",
"c c #c00000",
"d c #c3c3c3",
"b c #ff0000",
". c none",
"................",
"................",
"................",
"......####......",
"....ab....#bbb..",
"....#cb....ccc..",
"...##.acbcc##...",
"...##..acca##d..",
"...##.bcacb##d..",
"...##.cc.ac##d..",
"...e#.aa.fabed..",
"....bc....#ab...",
"....ca#####aab..",
"....a..ddddfab..",
"...........dd...",
"................"};
