/* XPM */
static const char *open_xpm[]={
"16 16 31 1",
". c None",
"d c #303030",
"w c #585858",
"u c #808080",
"n c #8d8d8d",
"j c #939393",
"A c #959595",
"h c #969696",
"r c #9c9c9c",
"m c #9d9d9d",
"f c #9e9e9e",
"e c #a2a2a2",
"p c #a3a3a3",
"B c #afafaf",
"c c #b4b4b4",
"g c #b9b9b9",
"l c #c0c0c0",
"s c #c3c3c3",
"x c #c6c6c6",
"z c #c9c9c9",
"a c #cccccc",
"v c #cdcdcd",
"C c #d0d0d0",
"o c #d1d1d1",
"t c #d3d3d3",
"b c #d4d4d4",
"i c #d5d5d5",
"y c #d6d6d6",
"# c #d9d9d9",
"k c #dadada",
"q c #dbdbdb",
"................",
"................",
".....#aaab......",
"....cddddde.....",
"...cdf...gdh....",
"..idjk....ldl...",
"..adm.....adhk..",
"..adm.....adn#..",
"..adm.....adn#..",
"..odm.....adp#..",
"..qrds...tudvq..",
"....hddwwddxy...",
".....zAuuBCi....",
"......k###q.....",
"................",
"................"};
