/* XPM */
static const char * qgo_xpm[] = {
"32 32 201 2",
"  	c None",
". 	c #FFBA59",
"+ 	c #FFC365",
"@ 	c #EBAA41",
"# 	c #FFB241",
"$ 	c #F4AA3E",
"% 	c #C38832",
"& 	c #8E6324",
"* 	c #C38E44",
"= 	c #F4B255",
"- 	c #523915",
"; 	c #0E0A04",
"> 	c #523C1D",
", 	c #000000",
"' 	c #0E0A05",
") 	c #8E6832",
"! 	c #F8AD40",
"~ 	c #B08242",
"{ 	c #A9762B",
"] 	c #F7BD62",
"^ 	c #0E0E0E",
"/ 	c #060606",
"( 	c #010101",
"_ 	c #A78042",
": 	c #866C42",
"< 	c #333333",
"[ 	c #3E3E3E",
"} 	c #303030",
"| 	c #1B1B1B",
"1 	c #0B0B0B",
"2 	c #030303",
"3 	c #674B1D",
"4 	c #B18344",
"5 	c #2D2D2D",
"6 	c #454545",
"7 	c #5D5D5D",
"8 	c #666666",
"9 	c #565656",
"0 	c #141414",
"a 	c #050505",
"b 	c #A7752B",
"c 	c #F7AD3F",
"d 	c #1D1C1A",
"e 	c #2F2F2F",
"f 	c #505050",
"g 	c #797979",
"h 	c #959595",
"i 	c #888888",
"j 	c #535353",
"k 	c #1F1F1F",
"l 	c #040301",
"m 	c #F7AC3F",
"n 	c #AC792E",
"o 	c #272727",
"p 	c #4B4B4B",
"q 	c #808080",
"r 	c #B0B0B0",
"s 	c #6F6F6F",
"t 	c #070707",
"u 	c #1A1A1A",
"v 	c #353535",
"w 	c #626262",
"x 	c #949494",
"y 	c #9F9F9F",
"z 	c #212121",
"A 	c #4B3413",
"B 	c #120D06",
"C 	c #0C0C0C",
"D 	c #191919",
"E 	c #313131",
"F 	c #4C4C4C",
"G 	c #343434",
"H 	c #0F0F0F",
"I 	c #100B04",
"J 	c #151515",
"K 	c #020202",
"L 	c #FEBA5B",
"M 	c #F5C982",
"N 	c #EAD1AA",
"O 	c #D8CFBF",
"P 	c #DDD1C1",
"Q 	c #F7C37A",
"R 	c #E4DFD9",
"S 	c #E1E1E1",
"T 	c #DBDBDB",
"U 	c #D8D8D8",
"V 	c #8B8B8B",
"W 	c #EEC384",
"X 	c #DFDFDF",
"Y 	c #E2E2E2",
"Z 	c #DCDCDC",
"` 	c #DADADA",
" .	c #C9C9C9",
"..	c #F4BA65",
"+.	c #DEDEDE",
"@.	c #E7E7E7",
"#.	c #EAEAEA",
"$.	c #E0E0E0",
"%.	c #D7D7D7",
"&.	c #D6D6D6",
"*.	c #D5D5D5",
"=.	c #868686",
"-.	c #FEB243",
";.	c #D8D3CC",
">.	c #F3F3F3",
",.	c #FCFCFC",
"'.	c #F6F6F6",
").	c #DDDDDD",
"!.	c #D2D2D2",
"~.	c #D3D3D3",
"{.	c #CDCDCD",
"].	c #585858",
"^.	c #F2B964",
"/.	c #D9D9D9",
"(.	c #EDEDED",
"_.	c #FEFEFE",
":.	c #D4D4D4",
"<.	c #CFCFCF",
"[.	c #D1D1D1",
"}.	c #CACACA",
"|.	c #828282",
"1.	c #E2C293",
"2.	c #F1F1F1",
"3.	c #F7F7F7",
"4.	c #CBCBCB",
"5.	c #CECECE",
"6.	c #C4C4C4",
"7.	c #C1C1C1",
"8.	c #838383",
"9.	c #100C06",
"0.	c #0F0B04",
"a.	c #A97B3B",
"b.	c #F7B456",
"c.	c #DACEBD",
"d.	c #CCCCCC",
"e.	c #C8C8C8",
"f.	c #C3C3C3",
"g.	c #C9BEB0",
"h.	c #D4C8B7",
"i.	c #D0D0D0",
"j.	c #C7C7C7",
"k.	c #C6C6C6",
"l.	c #C5C5C5",
"m.	c #C2C2C2",
"n.	c #C6BCAD",
"o.	c #DEBE8F",
"p.	c #C0C0C0",
"q.	c #D3B68E",
"r.	c #EEB460",
"s.	c #BCBCBC",
"t.	c #EAB76E",
"u.	c #FDB242",
"v.	c #CCC8C0",
"w.	c #BEB9B2",
"x.	c #FDB95A",
"y.	c #FFBF64",
"z.	c #FFD99E",
"A.	c #F9E6C6",
"B.	c #FFE8C6",
"C.	c #FFCE87",
"D.	c #EBB15C",
"E.	c #BFBFBF",
"F.	c #BDBDBD",
"G.	c #EAB66D",
"H.	c #FFD08E",
"I.	c #FFF3DF",
"J.	c #FEFDFA",
"K.	c #FFFDFA",
"L.	c #FFEFD8",
"M.	c #FFCA7D",
"N.	c #DEB781",
"O.	c #BEBEBE",
"P.	c #DAAF70",
"Q.	c #FFDBA8",
"R.	c #FFFDFB",
"S.	c #FFFFFE",
"T.	c #FFD79B",
"U.	c #C1BDB7",
"V.	c #B9B5AF",
"W.	c #E9AF5A",
"X.	c #FFD69B",
"Y.	c #FFF9EF",
"Z.	c #FFF7EC",
"`.	c #FFD18D",
" +	c #EAB66E",
".+	c #C9AE82",
"++	c #BDB3A4",
"@+	c #C2B7A9",
"#+	c #D4B485",
"$+	c #E9B66D",
"%+	c #E9A942",
"&+	c #FFC470",
"*+	c #FFE3B8",
"=+	c #FDF6EC",
"-+	c #FFDCA8",
";+	c #FFBD5C",
">+	c #FFBB5C",
",+	c #FFC873",
"'+	c #EEB962",
")+	c #FFBF62",
"!+	c #FFB952",
". + @ # # # . . . + + @ . . + @ # # # . @ # + . + . @ # # # . . ",
". + @ # # # . . . + + @ # . + @ # # # . @ # # + . + @ # # # . . ",
". + @ $ % & & * = + + @ # . + @ # # # . @ # # . + + @ # # # . . ",
". + @ % - ; ; > * + + @ # . + @ # # . . @ # # # + + @ # # # . . ",
". + @ & ; , , ' ) + + @ # . + . ! ~ , , , , { ] + @ # # # # . . ",
". + @ & ; , , ' ) + @ # # . + , , , , ^ / ( , , _ @ # . . . . . ",
". + @ % - ; ' > * + @ # # . : < [ [ } | 1 2 , , , 3 # # . . . . ",
". + @ $ % & ) * = + @ # # 4 5 6 7 8 9 < 0 a , , , , b # . . . . ",
". + @ # # . . . . + @ # c d e f g h i j k / , , , , l m # . . + ",
". + @ # # # . . . + @ # n , o p q r r s o t , , , , , { . . + + ",
". + @ # # # . . + + @ # , 1 u v w x y 8 z a , , , , , A # # . . ",
". + @ # # . . . + + @ # B a C D E F j G H ( , , , , , I . . . . ",
". + @ # # # . . + + @ # I ( 2 t ^ J J C K , , , , , , I # . . . ",
". + @ # # # . L M N O P , , , ( K K K ( , , , , , , , A # . . . ",
". + @ # # # Q R S S T U V , , , , , , , , , , , , , , { # # . + ",
". + @ # # W X Y Z Z ` U  .2 , , , , , , , , , , , , l m # + + + ",
". + @ # ..+.S @.#.$.%.&.*.=., , , , , , , , , , , , b # # # . + ",
". . @ -.;.U X >.,.'.).!.~.{.]., , , , , , , , , , 3 # # # # . + ",
". . @ ^.*./.X (._._.#.:.<.[.}.|.2 , , , , , , l _ @ # # # # . + ",
". . @ 1.:.U %.Z 2.3.+.!.4.5. .6.7.8., 9.0., a.b.+ @ # # # # . + ",
". . @ c.<.~.:.~.&.U d.{.e.e. .7.f.6.g.+ @ # # . + @ # . . # . + ",
". . . h.~.i.!.i.<.5.}.e.j.k.6.l.m.f.n.+ @ # # . + @ # . . . . + ",
". . @ o.~.~.5.d.d.<.j.6.k.}.l.l.l.p.q.+ @ # # . + @ . # . . . + ",
"# . @ r.5.i. .{.}. .k.e.j.6.l.7.f.s.t.+ @ # # . + @ # # . . . + ",
". . @ u.v.[.4.d.4.}.6.l.6.f.p.7.f.w.x.+ @ # # y.z.A.B.C.y.. . + ",
"# . @ # D.}.<.{.4.d.j.l.E.7.E.F.F.G.. + @ # # H.I.J.K.L.M.. . + ",
". . @ # # N.j.e.m.k.k.l.O.p.p.s.P.# . + @ # # Q.R.S.S.K.T.. . + ",
". . @ # # . G.U.p.O.p.f.m.s.V.W.. . . + @ # # X.Y.S.S.Z.`.. . + ",
". . @ # # . . x. +.+++@+#+$+%+# . . . + @ # # &+*+=+Z.-+;+. + + ",
". . @ # # # . . . + @ . # . @ # # . . + @ # # >+,+'+)+!+>+. + + ",
". . @ # . . . . . + . # # . @ # # . . + @ # # . + @ # # . . + + ",
"+ + @ # # # # . . + @ . # . @ # # . . + @ # # . + @ # . . . + + "};
