/* XPM */
static const char *quiet_xpm[]={
"16 16 5 1",
"# c #303030",
"c c #808080",
"b c #a0a0a0",
"a c #c3c3c3",
". c none",
"................",
"................",
"................",
"......####......",
".....#....#.....",
"....##.....#....",
"...##a.....##...",
"...##a.....##a..",
"...##a.....##a..",
"...##a.....##a..",
"...b#a..#..#ba..",
".....#...##aa...",
"......#####ca...",
".......aaaa#ca..",
"............aa..",
"................"};
