/* XPM */
static const char *refresh_games_xpm[]={
"16 16 7 1",
". c None",
"# c #000000",
"c c #00ff00",
"b c #808080",
"d c #c05800",
"a c #c0c0c0",
"e c #ffffff",
".##############.",
"#aaaaaaaaaaaaaa#",
"#b############a#",
"#b############a#",
"#b##c##ddddddddd",
"#b#####d#ddd#dd#",
"#b#####ddddddddd",
"#b#####deddd#dde",
"#b#####deddddddd",
"#b#####ddddddddd",
"#aaaaaaddddddddd",
"#aaaaaadddddddee",
".######dededd###",
"....#badddddd##d",
"..##aaaaaaa##...",
"..###########..."};
