/* XPM */
static const char *refresh_players_xpm[]={
"16 16 10 1",
". c None",
"# c #000000",
"f c #004000",
"c c #00ff00",
"h c #585858",
"b c #808080",
"d c #c05800",
"a c #c0c0c0",
"e c #ffa858",
"g c #ffffff",
".##############.",
"#aaaaaaaaaaaaaa#",
"#b############a#",
"#b############a#",
"#b##c###ddddd#a#",
"#b######dddd####",
"#b######ee######",
"#b######de######",
"#b#####eeedee###",
"#b######de#ee#e#",
"#aaaaaaa#efeeee#",
"#aaaaaaaaae#eee#",
".########ee#aee#",
"....#baga#hae##.",
"..##aaaaaaa##...",
"..###########..."};
