/* XPM */
static const char * sound_off_xpm[] = {
"16 16 159 2",
"  	c None",
". 	c #7F7F7F",
"+ 	c #868D90",
"@ 	c #858E91",
"# 	c #838A8B",
"$ 	c #7C7F80",
"% 	c #889196",
"& 	c #7A7E80",
"* 	c #575859",
"= 	c #BDC7CB",
"- 	c #859095",
"; 	c #E75656",
"> 	c #E36D6D",
", 	c #7A858A",
"' 	c #5F6365",
") 	c #2A2A2A",
"! 	c #424242",
"~ 	c #5C5C5C",
"{ 	c #A7B1B7",
"] 	c #7C7376",
"^ 	c #E17272",
"/ 	c #EB4545",
"( 	c #F41A1A",
"_ 	c #E94F4F",
": 	c #72292E",
"< 	c #C7B8BD",
"[ 	c #151212",
"} 	c #272727",
"| 	c #404040",
"1 	c #605151",
"2 	c #A25757",
"3 	c #AD464A",
"4 	c #F80A0A",
"5 	c #EE3535",
"6 	c #471417",
"7 	c #A11112",
"8 	c #E70F10",
"9 	c #F21A1A",
"0 	c #B72829",
"a 	c #CE7E7E",
"b 	c #F6E9E9",
"c 	c #CEBFBF",
"d 	c #AD2F2F",
"e 	c #E91515",
"f 	c #D62A2B",
"g 	c #A74244",
"h 	c #39464B",
"i 	c #35434C",
"j 	c #9C939C",
"k 	c #D99193",
"l 	c #DD5053",
"m 	c #E60C0C",
"n 	c #F61C1C",
"o 	c #F65B5B",
"p 	c #F88181",
"q 	c #DF1F1F",
"r 	c #A75B5E",
"s 	c #64666A",
"t 	c #768082",
"u 	c #B9C6C9",
"v 	c #BACAD2",
"w 	c #B6C3CB",
"x 	c #A99DA4",
"y 	c #A64D4D",
"z 	c #F33030",
"A 	c #F62B2B",
"B 	c #EB7E7E",
"C 	c #966565",
"D 	c #999A9F",
"E 	c #515D65",
"F 	c #46535A",
"G 	c #8799A1",
"H 	c #889CA4",
"I 	c #8E9EA5",
"J 	c #A1979E",
"K 	c #D16363",
"L 	c #F51818",
"M 	c #F61313",
"N 	c #F32A2A",
"O 	c #E09F9F",
"P 	c #868383",
"Q 	c #979899",
"R 	c #495861",
"S 	c #243036",
"T 	c #455E65",
"U 	c #6A7F86",
"V 	c #7B737A",
"W 	c #CB4549",
"X 	c #EE1919",
"Y 	c #DD4B4B",
"Z 	c #DF5D5D",
"` 	c #F21C1C",
" .	c #E44E4E",
"..	c #997C7C",
"+.	c #9C9EA0",
"@.	c #414E57",
"#.	c #1C2528",
"$.	c #28393E",
"%.	c #475A61",
"&.	c #893A3E",
"*.	c #EC1718",
"=.	c #C63434",
"-.	c #B18A8A",
";.	c #AEA0A0",
">.	c #D35858",
",.	c #C35858",
"'.	c #8D9197",
").	c #3B4851",
"!.	c #20282A",
"~.	c #12191C",
"{.	c #553135",
"].	c #CD191A",
"^.	c #D72729",
"/.	c #955959",
"(.	c #7A7777",
"_.	c #8C8C8C",
":.	c #A17070",
"<.	c #E02828",
"[.	c #E42E2E",
"}.	c #89585D",
"|.	c #40494F",
"1.	c #100B0C",
"2.	c #780C0D",
"3.	c #9F4349",
"4.	c #747A7E",
"5.	c #484848",
"6.	c #3A3A3A",
"7.	c #5D5656",
"8.	c #C66767",
"9.	c #F01A1A",
"0.	c #AB2327",
"a.	c #4D3E42",
"b.	c #EC3E3E",
"c.	c #EE3434",
"d.	c #411518",
"e.	c #4F6F79",
"f.	c #9C9C9C",
"g.	c #A2A2A2",
"h.	c #AAAAAA",
"i.	c #BAA0A0",
"j.	c #DD5050",
"k.	c #DF0F10",
"l.	c #EA4B4B",
"m.	c #29353F",
"n.	c #869296",
"o.	c #B2B2B2",
"p.	c #B9B9B9",
"q.	c #C2BFBF",
"r.	c #504851",
"s.	c #642F33",
"t.	c #28333C",
"u.	c #79878B",
"v.	c #B6B9BA",
"w.	c #3F565F",
"x.	c #27323B",
"y.	c #374449",
"z.	c #273239",
"A.	c #263138",
"B.	c #29363D",
"              . + @ #           ",
"            $ % & * = -         ",
"    ; >     , ' ) ! ~ { ] ^ /   ",
"    / ( _ : < [ } | 1 2 3 4 5   ",
"    6 7 8 9 0 a b c d e f g     ",
"  h i j k l m n o p 4 q r s     ",
"  t u v w x y z 4 A B C D E     ",
"  F G H I J K L M N O P Q R     ",
"  S T U V W X Y Z `  ...+.@.    ",
"  #.$.%.&.*.=.-.;.>.4 ,.'.).    ",
"  !.~.{.].^./.(._.:.<.[.}.|.    ",
"    1.2.4 3.4.5.6.7.8.9.0.a.    ",
"      b.c.d.e.f.g.h.i.j.k.      ",
"      l.    m.n.o.p.q.r.s.      ",
"            h t.u.v.w.x.        ",
"              y.z.A.B.          "};
