/* XPM */
static const char *sound_on_xpm[]={
"16 16 147 2",
"Qt c None",
"an c #15556a",
".# c #7f7f7f",
"ah c #17566d",
".d c #71848b",
"#6 c #13576f",
".J c #557384",
"#L c #0d323c",
".K c #15546e",
"ag c #074e6b",
".p c #608191",
"#V c #185775",
".W c #447089",
"aq c #044262",
".c c #73949a",
"#y c #033241",
".X c #5c8f9c",
"#X c #02141a",
".z c #022136",
"ao c #023b5e",
".a c #7094a6",
"#W c #001015",
".y c #001a2e",
"ap c #01375c",
"#l c #033b57",
"#K c #10507c",
"#. c #1d5d82",
".9 c #29648d",
".b c #6d99a9",
"#Y c #001a27",
"#7 c #001c2e",
"#M c #00212d",
"am c #003562",
"ai c #003764",
"ad c #003968",
"ac c #003c6b",
"#z c #004f65",
".L c #005080",
"#N c #00556c",
"af c #006596",
"al c #006e9d",
"#O c #00738d",
"#B c #0082a1",
"#A c #0083a5",
"#8 c #0096c8",
"#5 c #01588a",
".A c #055087",
"#Z c #069bce",
".q c #084268",
"#m c #0881a2",
".s c #131313",
"#x c #145683",
"#k c #1c608d",
".t c #272727",
".l c #2a2a2a",
".P c #2b2c2c",
"#P c #2ca1cf",
"#n c #329abd",
"#o c #359bbf",
"#2 c #3a3a3a",
"#U c #3e80a0",
".u c #404040",
".m c #424242",
".C c #435d6a",
"#1 c #484848",
"#C c #49aad8",
".x c #4b83a5",
"#0 c #4d8fa4",
".I c #4e8eb3",
".k c #536771",
"aj c #5399b1",
".g c #54595b",
"#a c #54b1d8",
"## c #55aed3",
"#p c #55b1db",
".M c #55b8ea",
".v c #565656",
".j c #5890ab",
"#b c #58b3db",
".G c #595959",
".n c #5c5c5c",
".V c #638ca4",
"#J c #65a3c1",
"#c c #65bbe3",
"ae c #67a2b5",
".i c #689bb2",
".e c #6a9bb4",
".f c #6d828c",
".1 c #72bee5",
"#Q c #737474",
".H c #757575",
".2 c #777777",
"#D c #787878",
".w c #787c7e",
".8 c #78a8c1",
"#R c #797979",
".U c #7b7b7b",
".7 c #7d7d7d",
"#i c #858585",
".o c #86bbd8",
".0 c #86d4fd",
"#S c #8b8b8b",
".O c #8bccee",
"#v c #8c8c8c",
".Z c #8ddbff",
".T c #8f8f8f",
"#j c #909a9f",
"#T c #919191",
".B c #94d2f0",
"#w c #95a0a6",
".Y c #98dbe9",
"#I c #999999",
"#9 c #9c9c9c",
".h c #a0d0e7",
".r c #a0d9f5",
"#q c #a1a1a1",
"a. c #a2a2a2",
"#E c #a4a4a4",
".N c #a5ebff",
"#3 c #a6a6a6",
"#H c #a7a7a7",
"a# c #aaaaaa",
"#F c #ababab",
"#G c #acacac",
"ak c #adbdc3",
"#4 c #b0b0b0",
"ab c #b1bcbf",
"#d c #b2b2b2",
"aa c #b3b3b3",
"#r c #b5b5b5",
".D c #b9b9b9",
"#s c #c2c2c2",
"#u c #c3c3c3",
"#t c #c4c4c4",
".F c #cccccc",
"#e c #d1d1d1",
"#h c #d8d8d8",
"#f c #dcdcdc",
"#g c #dedede",
".3 c #dfdfdf",
".6 c #e1e1e1",
".Q c #e9e9e9",
".4 c #ebebeb",
".5 c #efefef",
".R c #f5f5f5",
".E c #f6f6f6",
".S c #f8f8f8",
"QtQtQtQtQtQtQt.#.a.b.cQtQtQtQtQt",
"QtQtQtQtQtQt.d.e.f.g.h.iQtQtQtQt",
"QtQtQtQtQtQt.j.k.l.m.n.o.pQtQtQt",
"QtQtQtQtQt.q.r.s.t.u.v.w.xQtQtQt",
"QtQt.y.z.A.B.C.D.E.F.G.H.I.JQtQt",
"Qt.K.L.M.N.O.P.Q.R.S.T.U.V.WQtQt",
"Qt.X.Y.Z.0.1.2.3.4.5.6.7.8.9QtQt",
"Qt#.###a#b#c#d#e#f#g#h#i#j#kQtQt",
"Qt#l#m#n#o#p#q#r#s#t#u#v#w#xQtQt",
"Qt#y#z#A#B#C#D#E#F#G#H#I#J#KQtQt",
"Qt#L#M#N#O#P#Q#R#v#S#T#E#U#VQtQt",
"QtQt#W#X#Y#Z#0#1#2.G#3#4#5#6QtQt",
"QtQtQtQtQt#7#8#9a.a#aaabacQtQtQt",
"QtQtQtQtQtQtadae#d.D#safagQtQtQt",
"QtQtQtQtQtQtahaiajakalamQtQtQtQt",
"QtQtQtQtQtQtQtanaoapaqQtQtQtQtQt"};
