/* XPM */
static const char * start_xpm[] = {
"16 16 56 1",
" 	c None",
".	c #105375",
"+	c #124C6D",
"@	c #20374F",
"#	c #000000",
"$	c #1B4F6F",
"%	c #819EBA",
"&	c #010304",
"*	c #1B4B6A",
"=	c #E2F0F9",
"-	c #194A6A",
";	c #FDFCFD",
">	c #59C3DA",
",	c #114760",
"'	c #155474",
")	c #71D1E0",
"!	c #19B3CE",
"~	c #9DDEEE",
"{	c #CDEBF6",
"]	c #FDFAFD",
"^	c #80C2DB",
"/	c #0A1929",
"(	c #124D6F",
"_	c #DDEFF8",
":	c #0E97BF",
"<	c #1197B9",
"[	c #58ACC5",
"}	c #081C2D",
"|	c #0A121F",
"1	c #17587A",
"2	c #1390B4",
"3	c #3CD7E1",
"4	c #0EA0C5",
"5	c #22BAD1",
"6	c #43D5DE",
"7	c #2CC7D5",
"8	c #071C2C",
"9	c #081E31",
"0	c #155678",
"a	c #48DFE9",
"b	c #159ABC",
"c	c #2294B1",
"d	c #2A98B3",
"e	c #178EAC",
"f	c #14839F",
"g	c #071728",
"h	c #155A7A",
"i	c #1290B5",
"j	c #0F5D7E",
"k	c #0A263B",
"l	c #0A273B",
"m	c #135476",
"n	c #1CA2C3",
"o	c #000101",
"p	c #07182A",
"q	c #06101D",
"                ",
"        .       ",
"       +@       ",
" #    $%&       ",
" #   *%=#       ",
" #  -%;>,.....  ",
" # '%;)!~{]{^/  ",
" #(%_>!::<<<[}  ",
" #|1234:566758  ",
" # 902a4bcdef#  ",
" #  ghi3jkll##  ",
" #   gmno       ",
" #    p.#       ",
"       q#       ",
"        #       ",
"                "};
