/* XPM */
static const char * top_xpm[] = {
"16 16 56 1",
" 	c None",
".	c #000000",
"+	c #124D6F",
"@	c #0A121F",
"#	c #155474",
"$	c #819EBA",
"%	c #17587A",
"&	c #081E31",
"*	c #194A6A",
"=	c #DDEFF8",
"-	c #1390B4",
";	c #155678",
">	c #071728",
",	c #1B4B6A",
"'	c #FDFCFD",
")	c #59C3DA",
"!	c #3CD7E1",
"~	c #155A7A",
"{	c #1B4F6F",
"]	c #71D1E0",
"^	c #19B3CE",
"/	c #0EA0C5",
"(	c #48DFE9",
"_	c #1290B5",
":	c #135476",
"<	c #07182A",
"[	c #124C6D",
"}	c #E2F0F9",
"|	c #0E97BF",
"1	c #1CA2C3",
"2	c #105375",
"3	c #06101D",
"4	c #20374F",
"5	c #010304",
"6	c #114760",
"7	c #9DDEEE",
"8	c #22BAD1",
"9	c #159ABC",
"0	c #0F5D7E",
"a	c #000101",
"b	c #CDEBF6",
"c	c #1197B9",
"d	c #43D5DE",
"e	c #2294B1",
"f	c #0A263B",
"g	c #FDFAFD",
"h	c #2A98B3",
"i	c #0A273B",
"j	c #2CC7D5",
"k	c #178EAC",
"l	c #80C2DB",
"m	c #58ACC5",
"n	c #14839F",
"o	c #0A1929",
"p	c #081C2D",
"q	c #071C2C",
"                ",
"   ..........   ",
"       +@       ",
"      #$%&      ",
"     *$=-;>     ",
"    ,$')!-~>    ",
"   {$']^/(_:<   ",
"  [$})^||/!123  ",
" 245.67|890a... ",
"     2bcdef     ",
"     2gcdhi     ",
"     2bcjki     ",
"     2lm8n.     ",
"     2opq..     ",
"                ",
"                "};
