/* XPM */
static const char * transform_xpm[] = {
"16 16 9 1",
" 	c None",
".	c #000000",
"+	c #FFFFFF",
"@	c #000000",
"#	c #C0C000",
"$	c #FFFFC0",
"%	c #FFFFFF",
"&	c #000080",
"*	c #585858",
"                ",
"@@@@@@@         ",
"@#####@@+@+@    ",
"@#####@$$$$+    ",
"@##%%%%@@@@@@@@@",
"@##%##*$$$$+###@",
"@@@%***$$$$@###@",
" %$@$$$$$$$+###@",
" @$@$$$$$$$@###@",
" %$@$$$$$$&####@",
" @%@%@%@+@#&#&#@",
"   @########&&#@",
"   @#######&&&#@",
"   @###########@",
"   @@@@@@@@@@@@@",
"                "};
