/* XPM */
static const char * window_fullscreen_xpm[] = {
"16 16 72 1",
" 	c None",
".	c #000000",
"+	c #DCDCDC",
"@	c #D5D5D5",
"#	c #CECECE",
"$	c #C7C7C7",
"%	c #C0C0C0",
"&	c #BABABA",
"*	c #B3B3B3",
"=	c #ACACAC",
"-	c #A5A5A5",
";	c #9F9F9F",
">	c #777777",
",	c #E6E6E6",
"'	c #FFFFFF",
")	c #E6E6DA",
"!	c #800000",
"~	c #FFFFFD",
"{	c #FFFFFA",
"]	c #FFFFF8",
"^	c #E6E6D7",
"/	c #FFFFFE",
"(	c #FFFFFB",
"_	c #FFFFF9",
":	c #FFFFF6",
"<	c #FFFFF4",
"[	c #FFFFF1",
"}	c #E6E6D3",
"|	c #FFFFFC",
"1	c #FFFFF7",
"2	c #FFFFF5",
"3	c #FFFFF2",
"4	c #FFFFF0",
"5	c #FFFFEB",
"6	c #E6E6CF",
"7	c #FFFFF3",
"8	c #FFFFEE",
"9	c #FFFFEC",
"0	c #FFFFE9",
"a	c #FFFFE7",
"b	c #FFFFE4",
"c	c #E6E6CC",
"d	c #E6E6E5",
"e	c #FFFFEF",
"f	c #FFFFEA",
"g	c #FFFFE5",
"h	c #FFFFE2",
"i	c #FFFFE0",
"j	c #E6E6C8",
"k	c #E6E6E1",
"l	c #FFFFED",
"m	c #FFFFE8",
"n	c #FFFFE6",
"o	c #FFFFE3",
"p	c #FFFFDE",
"q	c #E6E6C4",
"r	c #E6E6DD",
"s	c #FFFFDF",
"t	c #FFFFDD",
"u	c #E6E6C0",
"v	c #E6E6D9",
"w	c #FFFFDB",
"x	c #E6E6BD",
"y	c #E6E6D6",
"z	c #E6E6D4",
"A	c #E6E6D1",
"B	c #E6E6CD",
"C	c #E6E6CB",
"D	c #E6E6C6",
"E	c #E6E6C2",
"F	c #E6E6BC",
"G	c #E6E6B9",
"                ",
"................",
".+++@#$%&*=-;;;.",
".>>>>>>>>>>>>>>.",
".,'''''''''''').",
".,!!!'''~{]!!!^.",
".,!!''/(_:<[!!}.",
".,!'!|{1234!5!6.",
".,'~{!274890abc.",
".d(_:<[e9f!ghij.",
".k!2!4l5mno!p!q.",
".r!!890abhst!!u.",
".v!!!aghipw!!!x.",
".yzA6BCjDqEuxFG.",
"................",
"                "};
