/* XPM */
static const char *wood2_xpm[] = {
/* columns rows colors chars-per-pixel */
"46 56 24 1",
"  c #bb6434",
". c #bf6e37",
"X c #bc6f39",
"o c #be713c",
"O c #bf7341",
"+ c #c06f37",
"@ c #c26f38",
"# c #c47235",
"$ c #c4743c",
"% c #c7793d",
"& c #cc7436",
"* c #ca753c",
"= c #cc793d",
"- c #d27636",
"; c #d27738",
": c #d27a3d",
"> c #c37642",
", c #c67943",
"< c #c77e4c",
"1 c #ca7641",
"2 c #ca7a43",
"3 c #cc7c49",
"4 c #d17c44",
"5 c #d17e48",
/* pixels */
"*==**>>21*#=*$@*12=*=%$=&&%%>22%&&1*@$*111*$$$",
"&--;==1:1--:-&&*:::***&&--;;12::-&:-&&;:::*=*&",
"&--;**=::--:-&&-:::**&#&--;**1==-&:-&&::::&=*#",
"#&&**$>**@&11**1114*11*@&&&$$>*$@&41**1114*=*$",
"*****>211*=41111444*1$$*&&**1,11*:411*11441**$",
"$111>><33243321,333>,,>$11,>><33153322,333,,,>",
"$11>>><3345511>,233>>,>@11>>><<345331>,33,>>>>",
"+**$$>,,,22311$2222$>$>+*=$$>,,,=421>1*222$>>>",
"+&&$oo,,>%222$$*222o$%$.&*$.o>,>%=22%$1222o$%%",
"+&&##$>2%&:4:**=%==#%%##&-##$,%%=;4:==**%=#%%%",
"#&&&$$,2=::44***===###%#&&&$>,2%;:4:=*====##%%",
"$$&$$,>>%%252$$1232%>oo.**$$,,$>2242$$*232>%oo",
"+&*$>,>O$$12*$$*223,,,$$**$>>>>O$12*$$%522,,>o",
"$$*$>>>oo$*%$$$$252,,>>o**$%>>oo$*2$.$%2322,>O",
"+$*$$>>>$$$2$$$$222%>$oo&*>$>O>>*$2$.$%2,,,,>%",
"$**$$>>>,222*$$*22,%>O$$**$$>>>,2*2%$$%2,2o%oo",
"$**$$O>>,2222$$122%O>oo$&%$$O>,,2142$$22%$,,%o",
"$=%$$OO>21*2*$$*%%%o%$o$**$$OO>,**21$$*1>$$$oo",
"$**2$OO>>$$*$$$$,,%oooo$%=2$OO>>$@1$$$*1,%oooo",
"+$$$ooOO>$@*$$$$222>,>$.$*$$oO$>$$2$$+$122>,>%",
"+**+$XO$$$@1*$$$%22$>>o.$$$ooOo>$@1*$$$222>>>o",
"+**+oXOo>*$*$$$$,2,$>$o$*&$.XOo>$$1$$$$22,oo$o",
"+**$oXOo>**1$$$$%,%o$ooo*&$oooo>*1*$$$>2,,$$$o",
"+**$oOoo$$*2*$$$%2,$>oo$**ooOOoo$***$$$1%%$>>o",
"+**@@>OX@>121$$$%%2>>>>@*&@$>OXX$*2*$$$*22o>>o",
"+$*@>>OXX@*21$+$$,2>>>O.*$$$>OXX$*21$+$$%2>>%$",
"+**@>>OX.+$41$+$$22%>$$.$*$$OOXX$*22$.$$22%%>o",
" @*>>O>>>11=&##$=2=%$o. @*@1>>>>1*=$###%22%%Xo",
" @*>>>>>>11=####=24%+.. @*@>O>>>*1=&###%=4%%o.",
"@@@1@>O X$@42$.$$22%1>X.@@>1>O  $$42$.o$22o%>o",
"@*@1>OO .$*2%$o$%%,%>>@@**@>OOO $*2%%.%%,2%,>$",
"@*@>@OOXo*%2%$o$%22>>1>@**>XOOXO$%2%$$%%,,%O>>",
"@**@XOOXo$12$$$$%2,$>$o.**$$OXXo$12$$$$*2>$>>o",
"@*1@.OOX>$*1$$$*%,%$>oo#**$oOXOO$1*$$$*12%o$oo",
"+**@.OOo>*$1$$$$%22o>ooo&&..OO$>*$2$$$$122o$%o",
"+**@.XOO>$@1$$$*222$>>o$$$$oXOo>$$2$$$$222$>>o",
"@@*$+XO$$$$1$$+$222>>>%.$$$$XO$>$@2$$$$222>,>%",
"@1=1$>O>>$$1$$$12,$oooo$*=2$OO>>*@*$+$$1%%oooo",
"@1*>$OO>1**2*$$*,%%o%oo$=*$$OO>,**22$$*2,%%>oo",
"@1*1$>>,,2222$$1,,%>>%o$*=$$>>>,1122$$12,$>>>o",
"$**$>OO>>1122$$*2,%o,o%o*%$$O>>>112*$$12,%%>oO",
"$**$%O,O$*$2*$$$222%,,o#**>%,O$>**2$$$*222>2%o",
"o**>%>OO$$$2$+$$22222,oo**>>,Oo$$$*$+$*222,,,>",
"+*$$>,,$$$12$$$*2332,,oo&*$>,Oo$*12$$$2225,,>o",
".&*$$,>$%%452$$*252>>$o.**$$>,>>1252$$$232%>oo",
"#&&$$$,2%::44**====###%#&&$$$,22=:4:==%===##%%",
"#&&##$2%%&;4:*&*%%=#%$%#&&##$,2>&:4:&$%%%=#%#%",
".&&$oo,,,%222>*>%22o$%$o&&$#o>,>%=22%$%222o%%%",
".&*$$>,,,12321>1122>>>$+**$$$,,,=2221>1122$$$>",
"$21>$><3255521>1333>>>>@111$><334532222333>>>>",
"$112>,<321552112333>>>>11=2$><332432112233>,>>",
"$*&=*>,11*:41111144111$@*&**,,21=:441111421**$",
"**#*@>>*@@&11***142*1*$*-#**$2*$@*411*1144*1**",
"&--;*=1==--:-&&;:::&&*#&--;**1==-&:-&&-4::&=*&",
"---;;11::;-:-*&*::;=**&&--:;11::--:-&&-::;*=*#",
"*&=%*>122*#1*@$&=2%%=*$*&=%*>,22&@1*@@$12=%%&$"
};
