/* XPM */
static const char* const image1_data[] = { 
"22 22 465 2",
"e. c #00001b",
"d. c #000022",
"cO c #000025",
"ct c #000029",
"b9 c #00002e",
"bu c #000032",
"b. c #000135",
"a8 c #000157",
"#p c #000200",
"c8 c #00024c",
"a# c #00031e",
"du c #000322",
"aP c #00032e",
"bN c #000361",
"a. c #000427",
"#l c #000500",
"c9 c #00053a",
"#r c #00060c",
"#P c #000618",
"aO c #000642",
"bM c #00075a",
"a9 c #00084d",
"d9 c #00092f",
"eY c #000a20",
"av c #000a2f",
"at c #000a45",
"b0 c #000b00",
"eI c #000b2b",
"ds c #000b49",
"aN c #000b54",
"#q c #000c0d",
"#s c #000c14",
"a3 c #000d00",
"b7 c #000d67",
"es c #001031",
"d8 c #00103d",
"bs c #00106b",
"dr c #001455",
"bV c #001500",
"dN c #001545",
"a7 c #001569",
"#G c #001700",
"#j c #001800",
"bG c #001900",
"bU c #001b00",
"a6 c #001b5b",
"bW c #001c00",
"bm c #001d00",
"aM c #001d67",
"br c #001d74",
"c7 c #001e68",
"b6 c #001f6f",
"c6 c #00245b",
"#2 c #002700",
"dq c #00275d",
"er c #00284e",
"b5 c #002a52",
"bY c #002b00",
"cp c #002b54",
"bq c #002b66",
"ci c #003000",
"bL c #003060",
"bX c #003100",
"dM c #003566",
"cL c #003763",
"cD c #003800",
"#F c #005500",
"bA c #006900",
"bi c #006b00",
"aG c #006e00",
"a1 c #007600",
"aZ c #007d00",
"#0 c #007f00",
"aE c #008000",
"aW c #008200",
"bf c #008600",
"be c #008b00",
"ak c #008e00",
"aD c #009400",
"aC c #009600",
"aV c #00a400",
"aB c #00a600",
"#m c #010002",
"#k c #011804",
"bj c #027900",
"#t c #030d16",
"al c #038602",
"aY c #048700",
"bO c #05115b",
"bt c #05135e",
"aX c #058e00",
"#n c #060000",
"b8 c #061058",
"au c #062051",
"bg c #077b00",
"a0 c #078404",
"ck c #080100",
"dP c #080b2e",
"dt c #081643",
"bk c #087e06",
"cs c #091758",
"dO c #0a0d38",
"aF c #0b8d07",
"#o c #0c0904",
"bh c #0c7a00",
"cN c #0d2271",
"bC c #0f610c",
"bZ c #0f6f01",
"bl c #0f740a",
"c1 c #150004",
"bF c #158016",
"c0 c #1b1311",
"bB c #1c7a24",
"cr c #1e3288",
"af c #20d518",
"bD c #217200",
"cM c #245ca7",
"ai c #24d52c",
"a2 c #258426",
"cG c #280e17",
"ag c #2cdd37",
"aj c #2dd631",
"cq c #2f68b5",
"#D c #2fd12e",
"ah c #2fdf3f",
"aA c #30cf2a",
"bE c #318e0c",
"aU c #32d232",
"#Y c #32df38",
"cF c #332314",
"#C c #37da3f",
"#Z c #39e338",
"#1 c #3dba42",
"#X c #3de258",
"#V c #3ec336",
"#W c #41d857",
"#h c #42d144",
"#g c #43d953",
"an c #489e45",
"cC c #49b758",
"bd c #4dda4e",
"bK c #51c8e8",
"cK c #53c1e2",
"am c #55cc54",
"ch c #56ca4f",
"ae c #57e24b",
"bz c #58bd57",
"#E c #58d658",
"b4 c #59d9f4",
"dL c #5ab1dc",
"cg c #5aca5e",
"cf c #5d8467",
"#N c #5f7b93",
"c4 c #5f7e9b",
"cJ c #5f87aa",
"#3 c #62935c",
"cj c #636e44",
"aJ c #637279",
"b3 c #6386b0",
"#U c #64c752",
"#B c #64ec80",
"#M c #657c8e",
"aw c #66758a",
"cn c #6690b8",
"aH c #66cc66",
"cE c #67854f",
"co c #67e0fd",
"#L c #686f77",
"bJ c #6888ae",
"bo c #6a869e",
"#8 c #6a86ab",
"dp c #6ac3ed",
"bp c #6ac8ee",
"ar c #6b81b0",
"aK c #6c8eb4",
"aI c #6d936c",
"bT c #6daa67",
"a4 c #6f8495",
"#Q c #707c88",
"ao c #71906e",
"aQ c #727e98",
"bv c #737695",
"bn c #74887d",
"#4 c #758270",
"bP c #767594",
"c5 c #76d8ff",
"b2 c #777091",
"aq c #7785a2",
"#7 c #78849c",
"#6 c #797b88",
"bH c #799275",
"d7 c #79c8f1",
"cX c #79cb81",
"cu c #7a7b90",
"dv c #7a7e8a",
"aa c #7a8a9a",
"cm c #7b779c",
"c. c #7b7b95",
"#u c #7b7f88",
"cY c #7bce7c",
"b1 c #7c7a7b",
"a5 c #7cbde5",
"#J c #7d777b",
"cI c #7d7799",
"ce c #7d8180",
"cP c #7e7f91",
"b# c #7e85a2",
"#5 c #7f7d82",
"#f c #7fd692",
"c3 c #80728b",
"#I c #80827d",
"#H c #809a7f",
"eq c #80c6ea",
"d# c #818493",
"cl c #85788a",
"eH c #85bedb",
"bI c #868597",
"ap c #868e91",
"cd c #87907b",
".W c #87eb88",
"#A c #89f59f",
"#K c #8c8a8d",
"as c #8eade6",
"aL c #8fb9f5",
".X c #91f088",
"#z c #93e789",
"cH c #97809a",
"eG c #98c1d3",
"d6 c #98d1ec",
"dK c #99cfeb",
"cW c #9ab5ae",
"aT c #9ac99d",
"d5 c #9cc0cc",
"dh c #9ccd9e",
"c2 c #9d7b93",
"#y c #9ddc8b",
"#T c #9ed199",
"#i c #9ee28d",
"eE c #a0a5a1",
".8 c #a2acab",
"eJ c #a2b0cb",
"fh c #a3c7d7",
".V c #a3ccaa",
"eN c #a5a4ac",
"cb c #a5c9a5",
"az c #a5d7a6",
"bR c #a6c0a7",
"#a c #a6c3a7",
"eZ c #a7cbe3",
"ep c #a7d9f0",
"ad c #a7dca6",
"ca c #a8d2ae",
"di c #a8d8a4",
"fi c #a9c8da",
"do c #a9cde7",
"eo c #aac8d2",
"#e c #aad9b5",
"#b c #abc6a7",
".n c #abcbbe",
"cw c #abd0ae",
"cx c #acc5a8",
"ea c #ada9c0",
"#O c #adc3da",
".4 c #aeafa7",
"bc c #aed8b0",
"#x c #aedaa9",
"eW c #afbec3",
".b c #afc4c5",
"by c #afd8ae",
"#R c #b0b9c2",
".Y c #b0c99f",
"#S c #b0c9b3",
"#c c #b0cba0",
"cV c #b1aec1",
"dj c #b1c4b0",
".J c #b1cbbe",
"#9 c #b1d1fa",
"dQ c #b2b2cc",
"#w c #b2d3b4",
"ew c #b3b1bc",
"e3 c #b3b2ba",
".1 c #b3b3bf",
"ff c #b3bec0",
".U c #b3bfbb",
".B c #b3c392",
"bS c #b3d9b2",
".i c #b4a6c9",
"ax c #b4c0ce",
".0 c #b5b8bf",
".K c #b5c6b4",
".6 c #b5c6bc",
"#d c #b5d6ab",
".D c #b6aec5",
"bb c #b6b0ba",
"dI c #b6b5ba",
".p c #b6bea7",
"d4 c #b6c0bf",
".o c #b6c8b2",
"cc c #b6c9a9",
"fg c #b6ccd7",
"eX c #b6d2de",
".C c #b7b9b6",
"fj c #b7bed0",
"ac c #b7c0bd",
".T c #b7c2b4",
".I c #b8c3bb",
".m c #b8c7c0",
"cB c #b8d4c6",
"## c #b9b7bc",
"f. c #b9c2cb",
".a c #b9c4c8",
"dD c #b9c5b7",
".x c #b9ccc8",
".c c #bab6c5",
"fk c #bab8c5",
"ex c #bac1cb",
"dC c #bac2c5",
"eF c #bad1d9",
"dd c #bbb2b3",
".q c #bbbbaf",
".M c #bbbeb5",
"cS c #bbc2b2",
".S c #bbc4b3",
".A c #bbcc98",
"eK c #bcb8cf",
"fn c #bcbbc0",
"ey c #bcc0c9",
"eg c #bcc0cb",
"f# c #bcc1c7",
".w c #bcc7c3",
"dJ c #bcd3e3",
"ay c #bdbac3",
"fl c #bdbbc6",
"dX c #bdbfcb",
"dB c #bdbfcc",
"eR c #bdc0c5",
"ef c #bdc0c7",
"eh c #bdc0c9",
"df c #bdc0d1",
"e9 c #bdc1c4",
"dE c #bdc5ae",
".7 c #bdcec6",
"cZ c #bddcbc",
"db c #bebcb0",
"dw c #bebfc3",
"aR c #bec7d8",
"e0 c #bec9dd",
".5 c #becabe",
"bx c #becac0",
".O c #bfb9bb",
"cv c #bfbcc7",
"e1 c #bfbccd",
"eu c #bfbccf",
"e5 c #bfbec3",
"bw c #bfbed0",
"dY c #bfbfc7",
"dW c #bfbfc9",
".R c #bfc5b9",
"dg c #bfd3d2",
".P c #c0b7bc",
".h c #c0b8dd",
"dA c #c0bec9",
"ec c #c0becb",
"ez c #c0bfc4",
"cQ c #c0bfc5",
"fa c #c0c0c2",
"ab c #c0ccd8",
"cR c #c0cdb9",
"fd c #c1bab2",
"eS c #c1bab4",
"dV c #c1bec5",
"eQ c #c1bfc0",
"ei c #c1bfc2",
"ee c #c1bfc4",
"e8 c #c1c0be",
".y c #c1c1cb",
"ba c #c1c4d7",
"fb c #c2bdb9",
"dS c #c2c0cb",
"#. c #c2c1c6",
"dR c #c2c1d1",
"fo c #c2c2c4",
".z c #c2c3bd",
"#v c #c2c5cc",
"ek c #c3b5ac",
"dz c #c3bec4",
".N c #c3c2be",
"da c #c3c4c8",
".9 c #c3c7ca",
"eA c #c4bebe",
"dZ c #c4bec0",
"dn c #c4bfd3",
"bQ c #c4c1d2",
"dm c #c5aabb",
"dG c #c5b8af",
"de c #c5c0c7",
"eb c #c5c2d3",
"cz c #c6b6b9",
"eT c #c6bdb4",
"dU c #c6bdbe",
"ej c #c6bebb",
"dy c #c6bebc",
"e7 c #c6bfb7",
"cT c #c6bfb9",
"c# c #c6c2d1",
"eL c #c6c3d6",
"fe c #c6c5c1",
"eC c #c7bab1",
"dx c #c7bdbb",
"em c #c7c0b6",
"dk c #c7c1c1",
"e2 c #c7c5d2",
".Q c #c7cac1",
"en c #c7d0cd",
"dT c #c8bcbc",
"d0 c #c8bdb7",
"ed c #c8bdbb",
"e6 c #c8beb4",
"eP c #c8beb5",
"d3 c #c8c2b6",
"fm c #c8c7cd",
".v c #c9b1bf",
"eD c #c9c2b8",
"eM c #c9c7d5",
"el c #cabcaf",
".r c #cac5bf",
"cy c #cac6bb",
"dc c #cac7c0",
".H c #cbb1b0",
"fc c #cbc2bb",
".g c #ccc1d2",
"eU c #ccc5bd",
"dF c #ccc6b6",
".L c #ccd7c6",
"cA c #cdc0d4",
".s c #cdc2c6",
".j c #ceb4cd",
".t c #cfc2c9",
"cU c #cfc4cc",
"e4 c #cfced4",
"eV c #cfd0cb",
".u c #d0a8c0",
".f c #d0baa2",
".d c #d0bbc2",
"et c #d0cce7",
"d1 c #d1bfb3",
"d2 c #d1c1b2",
".3 c #d1c3c3",
"aS c #d1c6d6",
".E c #d1c9e1",
"eO c #d1d0d6",
"dH c #d2c4c1",
"eB c #d2c8bf",
"e# c #d3cfea",
".F c #d4c3d6",
".G c #d5b2b9",
".2 c #d6c7ce",
".# c #d7b0cb",
".l c #d7b9b7",
"ev c #dad8e5",
"dl c #dcc0cc",
".e c #ddc3a8",
".Z c #ddd8d2",
".k c #deb0ba",
"Qt c #e9abd2",
"Qt.#.a.b.c.d.e.f.g.h.i.j.k.l.m.n.o.p.q.r.s.t",
".u.v.w.x.y.z.A.B.C.D.E.F.G.H.I.J.K.L.M.N.O.P",
".Q.R.S.T.U.V.W.X.Y.Z.0.1.2.3.4.5.6.7.8.9#.##",
"#a#b#c#d#e#f#g#h#i#j#k#l#m#n#o#p#q#r#s#t#u#v",
"#w#x#y#z#A#B#C#D#E#F#G#H#I#J#K#L#M#N#O#P#Q#R",
"#S#T#U#V#W#X#Y#Z#0#1#2#3#4#5#6#7#8#9a.a#aaab",
"acadaeafagahaiajakalamanaoapaqarasatauavawax",
"ayazaAaBaCaDakaDaEaFaGaHaIaJaKaLaMaNaOaPaQaR",
"aSaTaUaVakaWaXaYaZa0a1a2a3a4a5a6a7a8a9b.b#ba",
"bbbcbdbebfbgbhbibjbkblbmbnbobpbqbrbsbtbubvbw",
"bxbybzbAbBbCbDbEbgbFbGbHbIbJbKbLbMbNbObubPbQ",
"bRbSbTbUbVbWbXbYbZ#2b0b1b2b3b4b5b6b7b8b9c.c#",
"cacbcccdcecfcgchcicjckclcmcncocpcqcrcsctcucv",
"cwcxcyczcAcBcCcDcEcFcGcHcIcJcKcLcMcNatcOcPcQ",
"cRcScTcUcVcWcXcYcZc0c1c2c3c4c5c6c7c8c9d.d#da",
"dbdcdddedfdgdhdidjdkdldmdndodpdqdrdsdtdudvdw",
"dxdydzdAdBdCdDdEdFdGdHdIdJdKdLdMdNdOdPdQdRdS",
"dTdUdVdWdXdYdZd0d1d2d3d4d5d6d7d8d9e.e#eaebec",
"eddyeeefegeheiejekelemeneoepeqereseteaeuevew",
"d0ejeiefexeyezeAeBeCeDeEeFeGeHeIeJeKeLeMeNeO",
"ePcTeQeRexexeReQeSeTeUeVeWeXeYeZe0e1e2e3e4e5",
"e6e7e8e9f.f.f#fafbfcfdfefffgfhfifjfkflfmfnfo"};


